<?xml version="1.0" encoding="UTF-8" standalone="no"?>
<!-- Created with PhysiCell (http://PhysiCell.MathCancer.org/) -->
<svg 
 xmlns:dc="http://purl.org/dc/elements/1.1/" 
 xmlns:cc="http://creativecommons.org/ns#" 
 xmlns:rdf="http://www.w3.org/1999/02/22-rdf-syntax-ns#" 
 xmlns:svg="http://www.w3.org/2000/svg" 
 xmlns="http://www.w3.org/2000/svg" 
 version="1.1" 
 width="1000" 
 height="1070" 
 id="svg2">
  <rect x="0" y="0" width="1000" height="1070" stroke-width="2" stroke="white" fill="white"/>
  <text x="12.5" y="30"
   font-family="Arial" font-size="25" fill="black" >
   Current time: 0 days, 5 hours, and 10.00 minutes, z = 0.00 &#956;m
  </text>
  <text x="12.5" y="57.5"
   font-family="Arial" font-size="23.75" fill="black" >
   10 agents
  </text>
 <g id="tissue" 
    transform="translate(0,1070) scale(1,-1)">
  <g id="ECM">
  </g>
  <g id="cells">
   <g id="cell0" type="ellipsey" dead="false" >
  <ellipse cx="138.428" cy="985.124" rx="50" ry="21.7945" stroke-width="0.5" stroke="black" fill="grey" transform="rotate(-89.9678,138.428,985.124)"/>
   </g>
   <g id="cell1" type="ellipsey" dead="false" >
  <ellipse cx="66.2271" cy="612.08" rx="50" ry="21.7945" stroke-width="0.5" stroke="black" fill="grey" transform="rotate(21.6417,66.2271,612.08)"/>
   </g>
   <g id="cell2" type="ellipsey" dead="false" >
  <ellipse cx="519.692" cy="65.8682" rx="50" ry="21.7945" stroke-width="0.5" stroke="black" fill="grey" transform="rotate(-84.273,519.692,65.8682)"/>
   </g>
   <g id="cell3" type="ellipsey" dead="false" >
  <ellipse cx="629.441" cy="421.061" rx="50" ry="21.7945" stroke-width="0.5" stroke="black" fill="grey" transform="rotate(-33.5421,629.441,421.061)"/>
   </g>
   <g id="cell4" type="ellipsey" dead="false" >
  <ellipse cx="811.578" cy="876.679" rx="50" ry="21.7945" stroke-width="0.5" stroke="black" fill="grey" transform="rotate(50.6183,811.578,876.679)"/>
   </g>
   <g id="cell5" type="ellipsey" dead="false" >
  <ellipse cx="437.218" cy="632.885" rx="50" ry="21.7945" stroke-width="0.5" stroke="black" fill="grey" transform="rotate(-12.1477,437.218,632.885)"/>
   </g>
   <g id="cell6" type="ellipsey" dead="false" >
  <ellipse cx="935.59" cy="334.459" rx="50" ry="21.7945" stroke-width="0.5" stroke="black" fill="grey" transform="rotate(-9.08644,935.59,334.459)"/>
   </g>
   <g id="cell7" type="ellipsey" dead="false" >
  <ellipse cx="258.951" cy="442.564" rx="50" ry="21.7945" stroke-width="0.5" stroke="black" fill="grey" transform="rotate(87.1713,258.951,442.564)"/>
   </g>
   <g id="cell8" type="ellipsey" dead="false" >
  <ellipse cx="794.037" cy="684.27" rx="50" ry="21.7945" stroke-width="0.5" stroke="black" fill="grey" transform="rotate(14.0149,794.037,684.27)"/>
   </g>
   <g id="cell9" type="secretor_cell" dead="false" >
  <ellipse cx="178.333" cy="700" rx="25" ry="25" stroke-width="0.5" stroke="black" fill="red" transform="rotate(-9.97657,178.333,700)"/>
   </g>
  </g>
 </g>
  <rect x="775" y="1035" width="200" height="10" stroke-width="2" stroke="rgb(255,255,255)" fill="rgb(0,0,0)"/>
  <text x="781.25" y="1028.75"
   font-family="Arial" font-size="25" fill="black" >
   200 &#956;m
  </text>
  <text x="25" y="1045"
   font-family="Arial" font-size="18.75" fill="black" >
   0 days, 0 hours, 0 minutes, and 5.6283 seconds
  </text>
  <rect x="0" y="70" width="1000" height="1000" stroke-width="2" stroke="rgb(0,0,0)" fill="none"/>
</svg>
