<?xml version="1.0" encoding="UTF-8" standalone="no"?>
<!-- Created with PhysiCell (http://PhysiCell.MathCancer.org/) -->
<svg 
 xmlns:dc="http://purl.org/dc/elements/1.1/" 
 xmlns:cc="http://creativecommons.org/ns#" 
 xmlns:rdf="http://www.w3.org/1999/02/22-rdf-syntax-ns#" 
 xmlns:svg="http://www.w3.org/2000/svg" 
 xmlns="http://www.w3.org/2000/svg" 
 version="1.1" 
 width="1000" 
 height="1070" 
 id="svg2">
  <rect x="0" y="0" width="1000" height="1070" stroke-width="2" stroke="white" fill="white"/>
  <text x="12.5" y="30"
   font-family="Arial" font-size="25" fill="black" >
   Current time: 0 days, 3 hours, and 10.00 minutes, z = 0.00 &#956;m
  </text>
  <text x="12.5" y="57.5"
   font-family="Arial" font-size="23.75" fill="black" >
   10 agents
  </text>
 <g id="tissue" 
    transform="translate(0,1070) scale(1,-1)">
  <g id="ECM">
  </g>
  <g id="cells">
   <g id="cell0" type="ellipsey" dead="false" >
  <ellipse cx="137.995" cy="991.877" rx="50" ry="21.7945" stroke-width="0.5" stroke="black" fill="grey" transform="rotate(-90,137.995,991.877)"/>
   </g>
   <g id="cell1" type="ellipsey" dead="false" >
  <ellipse cx="59.9998" cy="612.959" rx="50" ry="21.7945" stroke-width="0.5" stroke="black" fill="grey" transform="rotate(17.0442,59.9998,612.959)"/>
   </g>
   <g id="cell2" type="ellipsey" dead="false" >
  <ellipse cx="525.986" cy="51.415" rx="50" ry="21.7945" stroke-width="0.5" stroke="black" fill="grey" transform="rotate(-85.9103,525.986,51.415)"/>
   </g>
   <g id="cell3" type="ellipsey" dead="false" >
  <ellipse cx="627.441" cy="420.649" rx="50" ry="21.7945" stroke-width="0.5" stroke="black" fill="grey" transform="rotate(-31.2679,627.441,420.649)"/>
   </g>
   <g id="cell4" type="ellipsey" dead="false" >
  <ellipse cx="816.968" cy="887.782" rx="50" ry="21.7945" stroke-width="0.5" stroke="black" fill="grey" transform="rotate(54.1497,816.968,887.782)"/>
   </g>
   <g id="cell5" type="ellipsey" dead="false" >
  <ellipse cx="425.461" cy="646.763" rx="50" ry="21.7945" stroke-width="0.5" stroke="black" fill="grey" transform="rotate(-6.9197,425.461,646.763)"/>
   </g>
   <g id="cell6" type="ellipsey" dead="false" >
  <ellipse cx="927.874" cy="330.165" rx="50" ry="21.7945" stroke-width="0.5" stroke="black" fill="grey" transform="rotate(-9.26086,927.874,330.165)"/>
   </g>
   <g id="cell7" type="ellipsey" dead="false" >
  <ellipse cx="251.549" cy="435.053" rx="50" ry="21.7945" stroke-width="0.5" stroke="black" fill="grey" transform="rotate(83.3013,251.549,435.053)"/>
   </g>
   <g id="cell8" type="ellipsey" dead="false" >
  <ellipse cx="786.268" cy="685.549" rx="50" ry="21.7945" stroke-width="0.5" stroke="black" fill="grey" transform="rotate(13.6666,786.268,685.549)"/>
   </g>
   <g id="cell9" type="secretor_cell" dead="false" >
  <ellipse cx="178.333" cy="700" rx="25" ry="25" stroke-width="0.5" stroke="black" fill="red" transform="rotate(-9.84737,178.333,700)"/>
   </g>
  </g>
 </g>
  <rect x="775" y="1035" width="200" height="10" stroke-width="2" stroke="rgb(255,255,255)" fill="rgb(0,0,0)"/>
  <text x="781.25" y="1028.75"
   font-family="Arial" font-size="25" fill="black" >
   200 &#956;m
  </text>
  <text x="25" y="1045"
   font-family="Arial" font-size="18.75" fill="black" >
   0 days, 0 hours, 0 minutes, and 3.4531 seconds
  </text>
  <rect x="0" y="70" width="1000" height="1000" stroke-width="2" stroke="rgb(0,0,0)" fill="none"/>
</svg>
