<?xml version="1.0" encoding="UTF-8" standalone="no"?>
<!-- Created with PhysiCell (http://PhysiCell.MathCancer.org/) -->
<svg 
 xmlns:dc="http://purl.org/dc/elements/1.1/" 
 xmlns:cc="http://creativecommons.org/ns#" 
 xmlns:rdf="http://www.w3.org/1999/02/22-rdf-syntax-ns#" 
 xmlns:svg="http://www.w3.org/2000/svg" 
 xmlns="http://www.w3.org/2000/svg" 
 version="1.1" 
 width="1000" 
 height="1070" 
 id="svg2">
  <rect x="0" y="0" width="1000" height="1070" stroke-width="2" stroke="white" fill="white"/>
  <text x="12.5" y="30"
   font-family="Arial" font-size="25" fill="black" >
   Current time: 0 days, 1 hours, and 10.00 minutes, z = 0.00 &#956;m
  </text>
  <text x="12.5" y="57.5"
   font-family="Arial" font-size="23.75" fill="black" >
   10 agents
  </text>
 <g id="tissue" 
    transform="translate(0,1070) scale(1,-1)">
  <g id="ECM">
  </g>
  <g id="cells">
   <g id="cell0" type="ellipsey" dead="false" >
  <ellipse cx="150.265" cy="976.594" rx="50" ry="21.7945" stroke-width="0.5" stroke="black" fill="grey" transform="rotate(-87.1698,150.265,976.594)"/>
   </g>
   <g id="cell1" type="ellipsey" dead="false" >
  <ellipse cx="49.8633" cy="599.798" rx="50" ry="21.7945" stroke-width="0.5" stroke="black" fill="grey" transform="rotate(16.0168,49.8633,599.798)"/>
   </g>
   <g id="cell2" type="ellipsey" dead="false" >
  <ellipse cx="536.333" cy="64.7779" rx="50" ry="21.7945" stroke-width="0.5" stroke="black" fill="grey" transform="rotate(-78.9317,536.333,64.7779)"/>
   </g>
   <g id="cell3" type="ellipsey" dead="false" >
  <ellipse cx="619.146" cy="427.248" rx="50" ry="21.7945" stroke-width="0.5" stroke="black" fill="grey" transform="rotate(-33.226,619.146,427.248)"/>
   </g>
   <g id="cell4" type="ellipsey" dead="false" >
  <ellipse cx="841.892" cy="891.391" rx="50" ry="21.7945" stroke-width="0.5" stroke="black" fill="grey" transform="rotate(44.784,841.892,891.391)"/>
   </g>
   <g id="cell5" type="ellipsey" dead="false" >
  <ellipse cx="422.029" cy="638.969" rx="50" ry="21.7945" stroke-width="0.5" stroke="black" fill="grey" transform="rotate(-14.0829,422.029,638.969)"/>
   </g>
   <g id="cell6" type="ellipsey" dead="false" >
  <ellipse cx="925.781" cy="326.238" rx="50" ry="21.7945" stroke-width="0.5" stroke="black" fill="grey" transform="rotate(-12.8297,925.781,326.238)"/>
   </g>
   <g id="cell7" type="ellipsey" dead="false" >
  <ellipse cx="259.177" cy="428.94" rx="50" ry="21.7945" stroke-width="0.5" stroke="black" fill="grey" transform="rotate(-89.5381,259.177,428.94)"/>
   </g>
   <g id="cell8" type="ellipsey" dead="false" >
  <ellipse cx="782.085" cy="696.978" rx="50" ry="21.7945" stroke-width="0.5" stroke="black" fill="grey" transform="rotate(6.42644,782.085,696.978)"/>
   </g>
   <g id="cell9" type="secretor_cell" dead="false" >
  <ellipse cx="178.333" cy="700" rx="25" ry="25" stroke-width="0.5" stroke="black" fill="red" transform="rotate(-7.82662,178.333,700)"/>
   </g>
  </g>
 </g>
  <rect x="775" y="1035" width="200" height="10" stroke-width="2" stroke="rgb(255,255,255)" fill="rgb(0,0,0)"/>
  <text x="781.25" y="1028.75"
   font-family="Arial" font-size="25" fill="black" >
   200 &#956;m
  </text>
  <text x="25" y="1045"
   font-family="Arial" font-size="18.75" fill="black" >
   0 days, 0 hours, 0 minutes, and 1.2791 seconds
  </text>
  <rect x="0" y="70" width="1000" height="1000" stroke-width="2" stroke="rgb(0,0,0)" fill="none"/>
</svg>
