<?xml version="1.0" encoding="UTF-8" standalone="no"?>
<!-- Created with PhysiCell (http://PhysiCell.MathCancer.org/) -->
<svg 
 xmlns:dc="http://purl.org/dc/elements/1.1/" 
 xmlns:cc="http://creativecommons.org/ns#" 
 xmlns:rdf="http://www.w3.org/1999/02/22-rdf-syntax-ns#" 
 xmlns:svg="http://www.w3.org/2000/svg" 
 xmlns="http://www.w3.org/2000/svg" 
 version="1.1" 
 width="1000" 
 height="1070" 
 id="svg2">
  <rect x="0" y="0" width="1000" height="1070" stroke-width="2" stroke="white" fill="white"/>
  <text x="12.5" y="30"
   font-family="Arial" font-size="25" fill="black" >
   Current time: 0 days, 5 hours, and 0.00 minutes, z = 0.00 &#956;m
  </text>
  <text x="12.5" y="57.5"
   font-family="Arial" font-size="23.75" fill="black" >
   10 agents
  </text>
 <g id="tissue" 
    transform="translate(0,1070) scale(1,-1)">
  <g id="ECM">
  </g>
  <g id="cells">
   <g id="cell0" type="ellipsey" dead="false" >
  <ellipse cx="141.785" cy="987.414" rx="50" ry="21.7945" stroke-width="0.5" stroke="black" fill="grey" transform="rotate(-89.8159,141.785,987.414)"/>
   </g>
   <g id="cell1" type="ellipsey" dead="false" >
  <ellipse cx="63.1903" cy="612.623" rx="50" ry="21.7945" stroke-width="0.5" stroke="black" fill="grey" transform="rotate(21.6432,63.1903,612.623)"/>
   </g>
   <g id="cell2" type="ellipsey" dead="false" >
  <ellipse cx="523.138" cy="67.1886" rx="50" ry="21.7945" stroke-width="0.5" stroke="black" fill="grey" transform="rotate(-84.2236,523.138,67.1886)"/>
   </g>
   <g id="cell3" type="ellipsey" dead="false" >
  <ellipse cx="631.307" cy="415.444" rx="50" ry="21.7945" stroke-width="0.5" stroke="black" fill="grey" transform="rotate(-34.0408,631.307,415.444)"/>
   </g>
   <g id="cell4" type="ellipsey" dead="false" >
  <ellipse cx="811.27" cy="881.776" rx="50" ry="21.7945" stroke-width="0.5" stroke="black" fill="grey" transform="rotate(54.969,811.27,881.776)"/>
   </g>
   <g id="cell5" type="ellipsey" dead="false" >
  <ellipse cx="433.36" cy="632.218" rx="50" ry="21.7945" stroke-width="0.5" stroke="black" fill="grey" transform="rotate(-12.1529,433.36,632.218)"/>
   </g>
   <g id="cell6" type="ellipsey" dead="false" >
  <ellipse cx="937.863" cy="334.25" rx="50" ry="21.7945" stroke-width="0.5" stroke="black" fill="grey" transform="rotate(-9.08794,937.863,334.25)"/>
   </g>
   <g id="cell7" type="ellipsey" dead="false" >
  <ellipse cx="257.769" cy="445.166" rx="50" ry="21.7945" stroke-width="0.5" stroke="black" fill="grey" transform="rotate(85.8767,257.769,445.166)"/>
   </g>
   <g id="cell8" type="ellipsey" dead="false" >
  <ellipse cx="796.041" cy="682.602" rx="50" ry="21.7945" stroke-width="0.5" stroke="black" fill="grey" transform="rotate(13.5012,796.041,682.602)"/>
   </g>
   <g id="cell9" type="secretor_cell" dead="false" >
  <ellipse cx="178.333" cy="700" rx="25" ry="25" stroke-width="0.5" stroke="black" fill="red" transform="rotate(-9.97399,178.333,700)"/>
   </g>
  </g>
 </g>
  <rect x="775" y="1035" width="200" height="10" stroke-width="2" stroke="rgb(255,255,255)" fill="rgb(0,0,0)"/>
  <text x="781.25" y="1028.75"
   font-family="Arial" font-size="25" fill="black" >
   200 &#956;m
  </text>
  <text x="25" y="1045"
   font-family="Arial" font-size="18.75" fill="black" >
   0 days, 0 hours, 0 minutes, and 5.4497 seconds
  </text>
  <rect x="0" y="70" width="1000" height="1000" stroke-width="2" stroke="rgb(0,0,0)" fill="none"/>
</svg>
