<?xml version="1.0" encoding="UTF-8" standalone="no"?>
<!-- Created with PhysiCell (http://PhysiCell.MathCancer.org/) -->
<svg 
 xmlns:dc="http://purl.org/dc/elements/1.1/" 
 xmlns:cc="http://creativecommons.org/ns#" 
 xmlns:rdf="http://www.w3.org/1999/02/22-rdf-syntax-ns#" 
 xmlns:svg="http://www.w3.org/2000/svg" 
 xmlns="http://www.w3.org/2000/svg" 
 version="1.1" 
 width="1000" 
 height="1070" 
 id="svg2">
  <rect x="0" y="0" width="1000" height="1070" stroke-width="2" stroke="white" fill="white"/>
  <text x="12.5" y="30"
   font-family="Arial" font-size="25" fill="black" >
   Current time: 0 days, 3 hours, and 40.00 minutes, z = 0.00 &#956;m
  </text>
  <text x="12.5" y="57.5"
   font-family="Arial" font-size="23.75" fill="black" >
   10 agents
  </text>
 <g id="tissue" 
    transform="translate(0,1070) scale(1,-1)">
  <g id="ECM">
  </g>
  <g id="cells">
   <g id="cell0" type="ellipsey" dead="false" >
  <ellipse cx="140.105" cy="991.069" rx="50" ry="21.7945" stroke-width="0.5" stroke="black" fill="grey" transform="rotate(-90,140.105,991.069)"/>
   </g>
   <g id="cell1" type="ellipsey" dead="false" >
  <ellipse cx="59.8209" cy="613.244" rx="50" ry="21.7945" stroke-width="0.5" stroke="black" fill="grey" transform="rotate(16.5305,59.8209,613.244)"/>
   </g>
   <g id="cell2" type="ellipsey" dead="false" >
  <ellipse cx="528.776" cy="50.6734" rx="50" ry="21.7945" stroke-width="0.5" stroke="black" fill="grey" transform="rotate(-86.0082,528.776,50.6734)"/>
   </g>
   <g id="cell3" type="ellipsey" dead="false" >
  <ellipse cx="629.225" cy="423.414" rx="50" ry="21.7945" stroke-width="0.5" stroke="black" fill="grey" transform="rotate(-31.2339,629.225,423.414)"/>
   </g>
   <g id="cell4" type="ellipsey" dead="false" >
  <ellipse cx="816.099" cy="887.92" rx="50" ry="21.7945" stroke-width="0.5" stroke="black" fill="grey" transform="rotate(54.8105,816.099,887.92)"/>
   </g>
   <g id="cell5" type="ellipsey" dead="false" >
  <ellipse cx="421.533" cy="639.356" rx="50" ry="21.7945" stroke-width="0.5" stroke="black" fill="grey" transform="rotate(-9.46519,421.533,639.356)"/>
   </g>
   <g id="cell6" type="ellipsey" dead="false" >
  <ellipse cx="928.031" cy="334.97" rx="50" ry="21.7945" stroke-width="0.5" stroke="black" fill="grey" transform="rotate(-9.16878,928.031,334.97)"/>
   </g>
   <g id="cell7" type="ellipsey" dead="false" >
  <ellipse cx="255.059" cy="431.083" rx="50" ry="21.7945" stroke-width="0.5" stroke="black" fill="grey" transform="rotate(83.0216,255.059,431.083)"/>
   </g>
   <g id="cell8" type="ellipsey" dead="false" >
  <ellipse cx="789.25" cy="679.828" rx="50" ry="21.7945" stroke-width="0.5" stroke="black" fill="grey" transform="rotate(12.1207,789.25,679.828)"/>
   </g>
   <g id="cell9" type="secretor_cell" dead="false" >
  <ellipse cx="178.333" cy="700" rx="25" ry="25" stroke-width="0.5" stroke="black" fill="red" transform="rotate(-9.91362,178.333,700)"/>
   </g>
  </g>
 </g>
  <rect x="775" y="1035" width="200" height="10" stroke-width="2" stroke="rgb(255,255,255)" fill="rgb(0,0,0)"/>
  <text x="781.25" y="1028.75"
   font-family="Arial" font-size="25" fill="black" >
   200 &#956;m
  </text>
  <text x="25" y="1045"
   font-family="Arial" font-size="18.75" fill="black" >
   0 days, 0 hours, 0 minutes, and 3.9971 seconds
  </text>
  <rect x="0" y="70" width="1000" height="1000" stroke-width="2" stroke="rgb(0,0,0)" fill="none"/>
</svg>
