<?xml version="1.0" encoding="UTF-8" standalone="no"?>
<!-- Created with PhysiCell (http://PhysiCell.MathCancer.org/) -->
<svg 
 xmlns:dc="http://purl.org/dc/elements/1.1/" 
 xmlns:cc="http://creativecommons.org/ns#" 
 xmlns:rdf="http://www.w3.org/1999/02/22-rdf-syntax-ns#" 
 xmlns:svg="http://www.w3.org/2000/svg" 
 xmlns="http://www.w3.org/2000/svg" 
 version="1.1" 
 width="1000" 
 height="1070" 
 id="svg2">
  <rect x="0" y="0" width="1000" height="1070" stroke-width="2" stroke="white" fill="white"/>
  <text x="12.5" y="30"
   font-family="Arial" font-size="25" fill="black" >
   Current time: 0 days, 3 hours, and 50.00 minutes, z = 0.00 &#956;m
  </text>
  <text x="12.5" y="57.5"
   font-family="Arial" font-size="23.75" fill="black" >
   10 agents
  </text>
 <g id="tissue" 
    transform="translate(0,1070) scale(1,-1)">
  <g id="ECM">
  </g>
  <g id="cells">
   <g id="cell0" type="ellipsey" dead="false" >
  <ellipse cx="137.845" cy="991.339" rx="50" ry="21.7945" stroke-width="0.5" stroke="black" fill="grey" transform="rotate(-90,137.845,991.339)"/>
   </g>
   <g id="cell1" type="ellipsey" dead="false" >
  <ellipse cx="59.5139" cy="609.035" rx="50" ry="21.7945" stroke-width="0.5" stroke="black" fill="grey" transform="rotate(14.8137,59.5139,609.035)"/>
   </g>
   <g id="cell2" type="ellipsey" dead="false" >
  <ellipse cx="531.925" cy="56.6748" rx="50" ry="21.7945" stroke-width="0.5" stroke="black" fill="grey" transform="rotate(-86.0284,531.925,56.6748)"/>
   </g>
   <g id="cell3" type="ellipsey" dead="false" >
  <ellipse cx="624.896" cy="425.78" rx="50" ry="21.7945" stroke-width="0.5" stroke="black" fill="grey" transform="rotate(-31.2253,624.896,425.78)"/>
   </g>
   <g id="cell4" type="ellipsey" dead="false" >
  <ellipse cx="815.944" cy="893.061" rx="50" ry="21.7945" stroke-width="0.5" stroke="black" fill="grey" transform="rotate(54.8496,815.944,893.061)"/>
   </g>
   <g id="cell5" type="ellipsey" dead="false" >
  <ellipse cx="424.633" cy="631.085" rx="50" ry="21.7945" stroke-width="0.5" stroke="black" fill="grey" transform="rotate(-11.7543,424.633,631.085)"/>
   </g>
   <g id="cell6" type="ellipsey" dead="false" >
  <ellipse cx="926.753" cy="337.46" rx="50" ry="21.7945" stroke-width="0.5" stroke="black" fill="grey" transform="rotate(-9.15001,926.753,337.46)"/>
   </g>
   <g id="cell7" type="ellipsey" dead="false" >
  <ellipse cx="256.379" cy="430.813" rx="50" ry="21.7945" stroke-width="0.5" stroke="black" fill="grey" transform="rotate(82.9617,256.379,430.813)"/>
   </g>
   <g id="cell8" type="ellipsey" dead="false" >
  <ellipse cx="782.116" cy="677.563" rx="50" ry="21.7945" stroke-width="0.5" stroke="black" fill="grey" transform="rotate(12.2986,782.116,677.563)"/>
   </g>
   <g id="cell9" type="secretor_cell" dead="false" >
  <ellipse cx="178.333" cy="700" rx="25" ry="25" stroke-width="0.5" stroke="black" fill="red" transform="rotate(-9.92778,178.333,700)"/>
   </g>
  </g>
 </g>
  <rect x="775" y="1035" width="200" height="10" stroke-width="2" stroke="rgb(255,255,255)" fill="rgb(0,0,0)"/>
  <text x="781.25" y="1028.75"
   font-family="Arial" font-size="25" fill="black" >
   200 &#956;m
  </text>
  <text x="25" y="1045"
   font-family="Arial" font-size="18.75" fill="black" >
   0 days, 0 hours, 0 minutes, and 4.2028 seconds
  </text>
  <rect x="0" y="70" width="1000" height="1000" stroke-width="2" stroke="rgb(0,0,0)" fill="none"/>
</svg>
