<?xml version="1.0" encoding="UTF-8" standalone="no"?>
<!-- Created with PhysiCell (http://PhysiCell.MathCancer.org/) -->
<svg 
 xmlns:dc="http://purl.org/dc/elements/1.1/" 
 xmlns:cc="http://creativecommons.org/ns#" 
 xmlns:rdf="http://www.w3.org/1999/02/22-rdf-syntax-ns#" 
 xmlns:svg="http://www.w3.org/2000/svg" 
 xmlns="http://www.w3.org/2000/svg" 
 version="1.1" 
 width="1000" 
 height="1070" 
 id="svg2">
  <rect x="0" y="0" width="1000" height="1070" stroke-width="2" stroke="white" fill="white"/>
  <text x="12.5" y="30"
   font-family="Arial" font-size="25" fill="black" >
   Current time: 0 days, 7 hours, and 40.00 minutes, z = 0.00 &#956;m
  </text>
  <text x="12.5" y="57.5"
   font-family="Arial" font-size="23.75" fill="black" >
   10 agents
  </text>
 <g id="tissue" 
    transform="translate(0,1070) scale(1,-1)">
  <g id="ECM">
  </g>
  <g id="cells">
   <g id="cell0" type="ellipsey" dead="false" >
  <ellipse cx="150.326" cy="987.811" rx="50" ry="21.7945" stroke-width="0.5" stroke="black" fill="grey" transform="rotate(-90,150.326,987.811)"/>
   </g>
   <g id="cell1" type="ellipsey" dead="false" >
  <ellipse cx="79.746" cy="601.317" rx="50" ry="21.7945" stroke-width="0.5" stroke="black" fill="grey" transform="rotate(28.9954,79.746,601.317)"/>
   </g>
   <g id="cell2" type="ellipsey" dead="false" >
  <ellipse cx="526.93" cy="52.8823" rx="50" ry="21.7945" stroke-width="0.5" stroke="black" fill="grey" transform="rotate(-86.1113,526.93,52.8823)"/>
   </g>
   <g id="cell3" type="ellipsey" dead="false" >
  <ellipse cx="647.96" cy="415.388" rx="50" ry="21.7945" stroke-width="0.5" stroke="black" fill="grey" transform="rotate(-32.0362,647.96,415.388)"/>
   </g>
   <g id="cell4" type="ellipsey" dead="false" >
  <ellipse cx="809.972" cy="859.417" rx="50" ry="21.7945" stroke-width="0.5" stroke="black" fill="grey" transform="rotate(48.2309,809.972,859.417)"/>
   </g>
   <g id="cell5" type="ellipsey" dead="false" >
  <ellipse cx="425.396" cy="632.029" rx="50" ry="21.7945" stroke-width="0.5" stroke="black" fill="grey" transform="rotate(-12.1265,425.396,632.029)"/>
   </g>
   <g id="cell6" type="ellipsey" dead="false" >
  <ellipse cx="928.34" cy="350.01" rx="50" ry="21.7945" stroke-width="0.5" stroke="black" fill="grey" transform="rotate(-8.239,928.34,350.01)"/>
   </g>
   <g id="cell7" type="ellipsey" dead="false" >
  <ellipse cx="265.53" cy="428.651" rx="50" ry="21.7945" stroke-width="0.5" stroke="black" fill="grey" transform="rotate(88.0872,265.53,428.651)"/>
   </g>
   <g id="cell8" type="ellipsey" dead="false" >
  <ellipse cx="801.246" cy="693.475" rx="50" ry="21.7945" stroke-width="0.5" stroke="black" fill="grey" transform="rotate(13.9791,801.246,693.475)"/>
   </g>
   <g id="cell9" type="secretor_cell" dead="false" >
  <ellipse cx="178.333" cy="700" rx="25" ry="25" stroke-width="0.5" stroke="black" fill="red" transform="rotate(-9.98707,178.333,700)"/>
   </g>
  </g>
 </g>
  <rect x="775" y="1035" width="200" height="10" stroke-width="2" stroke="rgb(255,255,255)" fill="rgb(0,0,0)"/>
  <text x="781.25" y="1028.75"
   font-family="Arial" font-size="25" fill="black" >
   200 &#956;m
  </text>
  <text x="25" y="1045"
   font-family="Arial" font-size="18.75" fill="black" >
   0 days, 0 hours, 0 minutes, and 8.2279 seconds
  </text>
  <rect x="0" y="70" width="1000" height="1000" stroke-width="2" stroke="rgb(0,0,0)" fill="none"/>
</svg>
