<?xml version="1.0" encoding="UTF-8" standalone="no"?>
<!-- Created with PhysiCell (http://PhysiCell.MathCancer.org/) -->
<svg 
 xmlns:dc="http://purl.org/dc/elements/1.1/" 
 xmlns:cc="http://creativecommons.org/ns#" 
 xmlns:rdf="http://www.w3.org/1999/02/22-rdf-syntax-ns#" 
 xmlns:svg="http://www.w3.org/2000/svg" 
 xmlns="http://www.w3.org/2000/svg" 
 version="1.1" 
 width="1000" 
 height="1070" 
 id="svg2">
  <rect x="0" y="0" width="1000" height="1070" stroke-width="2" stroke="white" fill="white"/>
  <text x="12.5" y="30"
   font-family="Arial" font-size="25" fill="black" >
   Current time: 0 days, 8 hours, and 10.00 minutes, z = 0.00 &#956;m
  </text>
  <text x="12.5" y="57.5"
   font-family="Arial" font-size="23.75" fill="black" >
   10 agents
  </text>
 <g id="tissue" 
    transform="translate(0,1070) scale(1,-1)">
  <g id="ECM">
  </g>
  <g id="cells">
   <g id="cell0" type="ellipsey" dead="false" >
  <ellipse cx="155.714" cy="991.833" rx="50" ry="21.7945" stroke-width="0.5" stroke="black" fill="grey" transform="rotate(-90,155.714,991.833)"/>
   </g>
   <g id="cell1" type="ellipsey" dead="false" >
  <ellipse cx="75.5426" cy="599.547" rx="50" ry="21.7945" stroke-width="0.5" stroke="black" fill="grey" transform="rotate(23.6153,75.5426,599.547)"/>
   </g>
   <g id="cell2" type="ellipsey" dead="false" >
  <ellipse cx="530.778" cy="51.0435" rx="50" ry="21.7945" stroke-width="0.5" stroke="black" fill="grey" transform="rotate(-86.1116,530.778,51.0435)"/>
   </g>
   <g id="cell3" type="ellipsey" dead="false" >
  <ellipse cx="633.291" cy="415.785" rx="50" ry="21.7945" stroke-width="0.5" stroke="black" fill="grey" transform="rotate(-34.018,633.291,415.785)"/>
   </g>
   <g id="cell4" type="ellipsey" dead="false" >
  <ellipse cx="816.652" cy="853.818" rx="50" ry="21.7945" stroke-width="0.5" stroke="black" fill="grey" transform="rotate(43.9896,816.652,853.818)"/>
   </g>
   <g id="cell5" type="ellipsey" dead="false" >
  <ellipse cx="421.211" cy="635.681" rx="50" ry="21.7945" stroke-width="0.5" stroke="black" fill="grey" transform="rotate(-12.1261,421.211,635.681)"/>
   </g>
   <g id="cell6" type="ellipsey" dead="false" >
  <ellipse cx="928.756" cy="347.871" rx="50" ry="21.7945" stroke-width="0.5" stroke="black" fill="grey" transform="rotate(-8.23872,928.756,347.871)"/>
   </g>
   <g id="cell7" type="ellipsey" dead="false" >
  <ellipse cx="272.759" cy="425.508" rx="50" ry="21.7945" stroke-width="0.5" stroke="black" fill="grey" transform="rotate(88.3731,272.759,425.508)"/>
   </g>
   <g id="cell8" type="ellipsey" dead="false" >
  <ellipse cx="801.802" cy="683.277" rx="50" ry="21.7945" stroke-width="0.5" stroke="black" fill="grey" transform="rotate(13.3905,801.802,683.277)"/>
   </g>
   <g id="cell9" type="secretor_cell" dead="false" >
  <ellipse cx="178.333" cy="700" rx="25" ry="25" stroke-width="0.5" stroke="black" fill="red" transform="rotate(-9.98729,178.333,700)"/>
   </g>
  </g>
 </g>
  <rect x="775" y="1035" width="200" height="10" stroke-width="2" stroke="rgb(255,255,255)" fill="rgb(0,0,0)"/>
  <text x="781.25" y="1028.75"
   font-family="Arial" font-size="25" fill="black" >
   200 &#956;m
  </text>
  <text x="25" y="1045"
   font-family="Arial" font-size="18.75" fill="black" >
   0 days, 0 hours, 0 minutes, and 8.7471 seconds
  </text>
  <rect x="0" y="70" width="1000" height="1000" stroke-width="2" stroke="rgb(0,0,0)" fill="none"/>
</svg>
