<?xml version="1.0" encoding="UTF-8" standalone="no"?>
<!-- Created with PhysiCell (http://PhysiCell.MathCancer.org/) -->
<svg 
 xmlns:dc="http://purl.org/dc/elements/1.1/" 
 xmlns:cc="http://creativecommons.org/ns#" 
 xmlns:rdf="http://www.w3.org/1999/02/22-rdf-syntax-ns#" 
 xmlns:svg="http://www.w3.org/2000/svg" 
 xmlns="http://www.w3.org/2000/svg" 
 version="1.1" 
 width="1000" 
 height="1070" 
 id="svg2">
  <rect x="0" y="0" width="1000" height="1070" stroke-width="2" stroke="white" fill="white"/>
  <text x="12.5" y="30"
   font-family="Arial" font-size="25" fill="black" >
   Current time: 0 days, 7 hours, and 0.00 minutes, z = 0.00 &#956;m
  </text>
  <text x="12.5" y="57.5"
   font-family="Arial" font-size="23.75" fill="black" >
   10 agents
  </text>
 <g id="tissue" 
    transform="translate(0,1070) scale(1,-1)">
  <g id="ECM">
  </g>
  <g id="cells">
   <g id="cell0" type="ellipsey" dead="false" >
  <ellipse cx="149.275" cy="991.909" rx="50" ry="21.7945" stroke-width="0.5" stroke="black" fill="grey" transform="rotate(-90,149.275,991.909)"/>
   </g>
   <g id="cell1" type="ellipsey" dead="false" >
  <ellipse cx="75.0134" cy="605.07" rx="50" ry="21.7945" stroke-width="0.5" stroke="black" fill="grey" transform="rotate(21.6365,75.0134,605.07)"/>
   </g>
   <g id="cell2" type="ellipsey" dead="false" >
  <ellipse cx="530.119" cy="51.3576" rx="50" ry="21.7945" stroke-width="0.5" stroke="black" fill="grey" transform="rotate(-86.1105,530.119,51.3576)"/>
   </g>
   <g id="cell3" type="ellipsey" dead="false" >
  <ellipse cx="646.392" cy="422.861" rx="50" ry="21.7945" stroke-width="0.5" stroke="black" fill="grey" transform="rotate(-29.4146,646.392,422.861)"/>
   </g>
   <g id="cell4" type="ellipsey" dead="false" >
  <ellipse cx="807.165" cy="865.512" rx="50" ry="21.7945" stroke-width="0.5" stroke="black" fill="grey" transform="rotate(49.2139,807.165,865.512)"/>
   </g>
   <g id="cell5" type="ellipsey" dead="false" >
  <ellipse cx="432.365" cy="633.142" rx="50" ry="21.7945" stroke-width="0.5" stroke="black" fill="grey" transform="rotate(-12.1278,432.365,633.142)"/>
   </g>
   <g id="cell6" type="ellipsey" dead="false" >
  <ellipse cx="927.395" cy="346.849" rx="50" ry="21.7945" stroke-width="0.5" stroke="black" fill="grey" transform="rotate(-8.23992,927.395,346.849)"/>
   </g>
   <g id="cell7" type="ellipsey" dead="false" >
  <ellipse cx="256.847" cy="440.084" rx="50" ry="21.7945" stroke-width="0.5" stroke="black" fill="grey" transform="rotate(86.3115,256.847,440.084)"/>
   </g>
   <g id="cell8" type="ellipsey" dead="false" >
  <ellipse cx="792.199" cy="695.298" rx="50" ry="21.7945" stroke-width="0.5" stroke="black" fill="grey" transform="rotate(14.1594,792.199,695.298)"/>
   </g>
   <g id="cell9" type="secretor_cell" dead="false" >
  <ellipse cx="178.333" cy="700" rx="25" ry="25" stroke-width="0.5" stroke="black" fill="red" transform="rotate(-9.98646,178.333,700)"/>
   </g>
  </g>
 </g>
  <rect x="775" y="1035" width="200" height="10" stroke-width="2" stroke="rgb(255,255,255)" fill="rgb(0,0,0)"/>
  <text x="781.25" y="1028.75"
   font-family="Arial" font-size="25" fill="black" >
   200 &#956;m
  </text>
  <text x="25" y="1045"
   font-family="Arial" font-size="18.75" fill="black" >
   0 days, 0 hours, 0 minutes, and 7.5402 seconds
  </text>
  <rect x="0" y="70" width="1000" height="1000" stroke-width="2" stroke="rgb(0,0,0)" fill="none"/>
</svg>
