<?xml version="1.0" encoding="UTF-8" standalone="no"?>
<!-- Created with PhysiCell (http://PhysiCell.MathCancer.org/) -->
<svg 
 xmlns:dc="http://purl.org/dc/elements/1.1/" 
 xmlns:cc="http://creativecommons.org/ns#" 
 xmlns:rdf="http://www.w3.org/1999/02/22-rdf-syntax-ns#" 
 xmlns:svg="http://www.w3.org/2000/svg" 
 xmlns="http://www.w3.org/2000/svg" 
 version="1.1" 
 width="1000" 
 height="1070" 
 id="svg2">
  <rect x="0" y="0" width="1000" height="1070" stroke-width="2" stroke="white" fill="white"/>
  <text x="12.5" y="30"
   font-family="Arial" font-size="25" fill="black" >
   Current time: 0 days, 6 hours, and 10.00 minutes, z = 0.00 &#956;m
  </text>
  <text x="12.5" y="57.5"
   font-family="Arial" font-size="23.75" fill="black" >
   10 agents
  </text>
 <g id="tissue" 
    transform="translate(0,1070) scale(1,-1)">
  <g id="ECM">
  </g>
  <g id="cells">
   <g id="cell0" type="ellipsey" dead="false" >
  <ellipse cx="143.973" cy="991.123" rx="50" ry="21.7945" stroke-width="0.5" stroke="black" fill="grey" transform="rotate(-90,143.973,991.123)"/>
   </g>
   <g id="cell1" type="ellipsey" dead="false" >
  <ellipse cx="75.515" cy="609.649" rx="50" ry="21.7945" stroke-width="0.5" stroke="black" fill="grey" transform="rotate(21.6372,75.515,609.649)"/>
   </g>
   <g id="cell2" type="ellipsey" dead="false" >
  <ellipse cx="528.017" cy="57.9235" rx="50" ry="21.7945" stroke-width="0.5" stroke="black" fill="grey" transform="rotate(-85.8929,528.017,57.9235)"/>
   </g>
   <g id="cell3" type="ellipsey" dead="false" >
  <ellipse cx="630.037" cy="413.815" rx="50" ry="21.7945" stroke-width="0.5" stroke="black" fill="grey" transform="rotate(-33.987,630.037,413.815)"/>
   </g>
   <g id="cell4" type="ellipsey" dead="false" >
  <ellipse cx="806.136" cy="875.934" rx="50" ry="21.7945" stroke-width="0.5" stroke="black" fill="grey" transform="rotate(49.2083,806.136,875.934)"/>
   </g>
   <g id="cell5" type="ellipsey" dead="false" >
  <ellipse cx="430.696" cy="632.562" rx="50" ry="21.7945" stroke-width="0.5" stroke="black" fill="grey" transform="rotate(-12.1008,430.696,632.562)"/>
   </g>
   <g id="cell6" type="ellipsey" dead="false" >
  <ellipse cx="925.78" cy="344.648" rx="50" ry="21.7945" stroke-width="0.5" stroke="black" fill="grey" transform="rotate(-9.0369,925.78,344.648)"/>
   </g>
   <g id="cell7" type="ellipsey" dead="false" >
  <ellipse cx="256.767" cy="438.199" rx="50" ry="21.7945" stroke-width="0.5" stroke="black" fill="grey" transform="rotate(82.7826,256.767,438.199)"/>
   </g>
   <g id="cell8" type="ellipsey" dead="false" >
  <ellipse cx="793.377" cy="690.042" rx="50" ry="21.7945" stroke-width="0.5" stroke="black" fill="grey" transform="rotate(14.1517,793.377,690.042)"/>
   </g>
   <g id="cell9" type="secretor_cell" dead="false" >
  <ellipse cx="178.333" cy="700" rx="25" ry="25" stroke-width="0.5" stroke="black" fill="red" transform="rotate(-9.98445,178.333,700)"/>
   </g>
  </g>
 </g>
  <rect x="775" y="1035" width="200" height="10" stroke-width="2" stroke="rgb(255,255,255)" fill="rgb(0,0,0)"/>
  <text x="781.25" y="1028.75"
   font-family="Arial" font-size="25" fill="black" >
   200 &#956;m
  </text>
  <text x="25" y="1045"
   font-family="Arial" font-size="18.75" fill="black" >
   0 days, 0 hours, 0 minutes, and 6.6741 seconds
  </text>
  <rect x="0" y="70" width="1000" height="1000" stroke-width="2" stroke="rgb(0,0,0)" fill="none"/>
</svg>
