<?xml version="1.0" encoding="UTF-8" standalone="no"?>
<!-- Created with PhysiCell (http://PhysiCell.MathCancer.org/) -->
<svg 
 xmlns:dc="http://purl.org/dc/elements/1.1/" 
 xmlns:cc="http://creativecommons.org/ns#" 
 xmlns:rdf="http://www.w3.org/1999/02/22-rdf-syntax-ns#" 
 xmlns:svg="http://www.w3.org/2000/svg" 
 xmlns="http://www.w3.org/2000/svg" 
 version="1.1" 
 width="1000" 
 height="1070" 
 id="svg2">
  <rect x="0" y="0" width="1000" height="1070" stroke-width="2" stroke="white" fill="white"/>
  <text x="12.5" y="30"
   font-family="Arial" font-size="25" fill="black" >
   Current time: 0 days, 0 hours, and 50.00 minutes, z = 0.00 &#956;m
  </text>
  <text x="12.5" y="57.5"
   font-family="Arial" font-size="23.75" fill="black" >
   10 agents
  </text>
 <g id="tissue" 
    transform="translate(0,1070) scale(1,-1)">
  <g id="ECM">
  </g>
  <g id="cells">
   <g id="cell0" type="ellipsey" dead="false" >
  <ellipse cx="151.471" cy="980.444" rx="50" ry="21.7945" stroke-width="0.5" stroke="black" fill="grey" transform="rotate(-86.8676,151.471,980.444)"/>
   </g>
   <g id="cell1" type="ellipsey" dead="false" >
  <ellipse cx="52.1538" cy="597.876" rx="50" ry="21.7945" stroke-width="0.5" stroke="black" fill="grey" transform="rotate(16.8928,52.1538,597.876)"/>
   </g>
   <g id="cell2" type="ellipsey" dead="false" >
  <ellipse cx="540.35" cy="63.9682" rx="50" ry="21.7945" stroke-width="0.5" stroke="black" fill="grey" transform="rotate(-74.9115,540.35,63.9682)"/>
   </g>
   <g id="cell3" type="ellipsey" dead="false" >
  <ellipse cx="615.146" cy="422.69" rx="50" ry="21.7945" stroke-width="0.5" stroke="black" fill="grey" transform="rotate(-33.2004,615.146,422.69)"/>
   </g>
   <g id="cell4" type="ellipsey" dead="false" >
  <ellipse cx="836.922" cy="900.479" rx="50" ry="21.7945" stroke-width="0.5" stroke="black" fill="grey" transform="rotate(43.2101,836.922,900.479)"/>
   </g>
   <g id="cell5" type="ellipsey" dead="false" >
  <ellipse cx="420.202" cy="642.04" rx="50" ry="21.7945" stroke-width="0.5" stroke="black" fill="grey" transform="rotate(-12.7609,420.202,642.04)"/>
   </g>
   <g id="cell6" type="ellipsey" dead="false" >
  <ellipse cx="926.357" cy="326.257" rx="50" ry="21.7945" stroke-width="0.5" stroke="black" fill="grey" transform="rotate(-15.9342,926.357,326.257)"/>
   </g>
   <g id="cell7" type="ellipsey" dead="false" >
  <ellipse cx="255.731" cy="441.724" rx="50" ry="21.7945" stroke-width="0.5" stroke="black" fill="grey" transform="rotate(-83.8724,255.731,441.724)"/>
   </g>
   <g id="cell8" type="ellipsey" dead="false" >
  <ellipse cx="779.024" cy="694.609" rx="50" ry="21.7945" stroke-width="0.5" stroke="black" fill="grey" transform="rotate(2.74618,779.024,694.609)"/>
   </g>
   <g id="cell9" type="secretor_cell" dead="false" >
  <ellipse cx="178.333" cy="700" rx="25" ry="25" stroke-width="0.5" stroke="black" fill="red" transform="rotate(-6.19396,178.333,700)"/>
   </g>
  </g>
 </g>
  <rect x="775" y="1035" width="200" height="10" stroke-width="2" stroke="rgb(255,255,255)" fill="rgb(0,0,0)"/>
  <text x="781.25" y="1028.75"
   font-family="Arial" font-size="25" fill="black" >
   200 &#956;m
  </text>
  <text x="25" y="1045"
   font-family="Arial" font-size="18.75" fill="black" >
   0 days, 0 hours, 0 minutes, and 0.9275 seconds
  </text>
  <rect x="0" y="70" width="1000" height="1000" stroke-width="2" stroke="rgb(0,0,0)" fill="none"/>
</svg>
