<?xml version="1.0" encoding="UTF-8" standalone="no"?>
<!-- Created with PhysiCell (http://PhysiCell.MathCancer.org/) -->
<svg 
 xmlns:dc="http://purl.org/dc/elements/1.1/" 
 xmlns:cc="http://creativecommons.org/ns#" 
 xmlns:rdf="http://www.w3.org/1999/02/22-rdf-syntax-ns#" 
 xmlns:svg="http://www.w3.org/2000/svg" 
 xmlns="http://www.w3.org/2000/svg" 
 version="1.1" 
 width="1000" 
 height="1070" 
 id="svg2">
  <rect x="0" y="0" width="1000" height="1070" stroke-width="2" stroke="white" fill="white"/>
  <text x="12.5" y="30"
   font-family="Arial" font-size="25" fill="black" >
   Current time: 0 days, 1 hours, and 40.00 minutes, z = 0.00 &#956;m
  </text>
  <text x="12.5" y="57.5"
   font-family="Arial" font-size="23.75" fill="black" >
   10 agents
  </text>
 <g id="tissue" 
    transform="translate(0,1070) scale(1,-1)">
  <g id="ECM">
  </g>
  <g id="cells">
   <g id="cell0" type="ellipsey" dead="false" >
  <ellipse cx="148.334" cy="980.703" rx="50" ry="21.7945" stroke-width="0.5" stroke="black" fill="grey" transform="rotate(-88.0889,148.334,980.703)"/>
   </g>
   <g id="cell1" type="ellipsey" dead="false" >
  <ellipse cx="58.574" cy="606.714" rx="50" ry="21.7945" stroke-width="0.5" stroke="black" fill="grey" transform="rotate(14.4038,58.574,606.714)"/>
   </g>
   <g id="cell2" type="ellipsey" dead="false" >
  <ellipse cx="535.645" cy="61.5764" rx="50" ry="21.7945" stroke-width="0.5" stroke="black" fill="grey" transform="rotate(-82.0566,535.645,61.5764)"/>
   </g>
   <g id="cell3" type="ellipsey" dead="false" >
  <ellipse cx="624.722" cy="433.412" rx="50" ry="21.7945" stroke-width="0.5" stroke="black" fill="grey" transform="rotate(-31.6396,624.722,433.412)"/>
   </g>
   <g id="cell4" type="ellipsey" dead="false" >
  <ellipse cx="838.254" cy="889.529" rx="50" ry="21.7945" stroke-width="0.5" stroke="black" fill="grey" transform="rotate(49.6006,838.254,889.529)"/>
   </g>
   <g id="cell5" type="ellipsey" dead="false" >
  <ellipse cx="424.712" cy="649.455" rx="50" ry="21.7945" stroke-width="0.5" stroke="black" fill="grey" transform="rotate(-8.48002,424.712,649.455)"/>
   </g>
   <g id="cell6" type="ellipsey" dead="false" >
  <ellipse cx="924.434" cy="335.129" rx="50" ry="21.7945" stroke-width="0.5" stroke="black" fill="grey" transform="rotate(-10.6942,924.434,335.129)"/>
   </g>
   <g id="cell7" type="ellipsey" dead="false" >
  <ellipse cx="261.978" cy="427.938" rx="50" ry="21.7945" stroke-width="0.5" stroke="black" fill="grey" transform="rotate(-87.9044,261.978,427.938)"/>
   </g>
   <g id="cell8" type="ellipsey" dead="false" >
  <ellipse cx="775.383" cy="696.888" rx="50" ry="21.7945" stroke-width="0.5" stroke="black" fill="grey" transform="rotate(10.4285,775.383,696.888)"/>
   </g>
   <g id="cell9" type="secretor_cell" dead="false" >
  <ellipse cx="178.333" cy="700" rx="25" ry="25" stroke-width="0.5" stroke="black" fill="red" transform="rotate(-8.96379,178.333,700)"/>
   </g>
  </g>
 </g>
  <rect x="775" y="1035" width="200" height="10" stroke-width="2" stroke="rgb(255,255,255)" fill="rgb(0,0,0)"/>
  <text x="781.25" y="1028.75"
   font-family="Arial" font-size="25" fill="black" >
   200 &#956;m
  </text>
  <text x="25" y="1045"
   font-family="Arial" font-size="18.75" fill="black" >
   0 days, 0 hours, 0 minutes, and 1.8195 seconds
  </text>
  <rect x="0" y="70" width="1000" height="1000" stroke-width="2" stroke="rgb(0,0,0)" fill="none"/>
</svg>
