<?xml version="1.0" encoding="UTF-8" standalone="no"?>
<!-- Created with PhysiCell (http://PhysiCell.MathCancer.org/) -->
<svg 
 xmlns:dc="http://purl.org/dc/elements/1.1/" 
 xmlns:cc="http://creativecommons.org/ns#" 
 xmlns:rdf="http://www.w3.org/1999/02/22-rdf-syntax-ns#" 
 xmlns:svg="http://www.w3.org/2000/svg" 
 xmlns="http://www.w3.org/2000/svg" 
 version="1.1" 
 width="1000" 
 height="1070" 
 id="svg2">
  <rect x="0" y="0" width="1000" height="1070" stroke-width="2" stroke="white" fill="white"/>
  <text x="12.5" y="30"
   font-family="Arial" font-size="25" fill="black" >
   Current time: 0 days, 1 hours, and 20.00 minutes, z = 0.00 &#956;m
  </text>
  <text x="12.5" y="57.5"
   font-family="Arial" font-size="23.75" fill="black" >
   10 agents
  </text>
 <g id="tissue" 
    transform="translate(0,1070) scale(1,-1)">
  <g id="ECM">
  </g>
  <g id="cells">
   <g id="cell0" type="ellipsey" dead="false" >
  <ellipse cx="149.11" cy="979.549" rx="50" ry="21.7945" stroke-width="0.5" stroke="black" fill="grey" transform="rotate(-86.9414,149.11,979.549)"/>
   </g>
   <g id="cell1" type="ellipsey" dead="false" >
  <ellipse cx="50.154" cy="602.201" rx="50" ry="21.7945" stroke-width="0.5" stroke="black" fill="grey" transform="rotate(14.9055,50.154,602.201)"/>
   </g>
   <g id="cell2" type="ellipsey" dead="false" >
  <ellipse cx="533.086" cy="62.1887" rx="50" ry="21.7945" stroke-width="0.5" stroke="black" fill="grey" transform="rotate(-80.173,533.086,62.1887)"/>
   </g>
   <g id="cell3" type="ellipsey" dead="false" >
  <ellipse cx="622.928" cy="432.843" rx="50" ry="21.7945" stroke-width="0.5" stroke="black" fill="grey" transform="rotate(-32.1803,622.928,432.843)"/>
   </g>
   <g id="cell4" type="ellipsey" dead="false" >
  <ellipse cx="840.054" cy="889.183" rx="50" ry="21.7945" stroke-width="0.5" stroke="black" fill="grey" transform="rotate(45.8638,840.054,889.183)"/>
   </g>
   <g id="cell5" type="ellipsey" dead="false" >
  <ellipse cx="423.249" cy="642.17" rx="50" ry="21.7945" stroke-width="0.5" stroke="black" fill="grey" transform="rotate(-11.0286,423.249,642.17)"/>
   </g>
   <g id="cell6" type="ellipsey" dead="false" >
  <ellipse cx="929.87" cy="327.455" rx="50" ry="21.7945" stroke-width="0.5" stroke="black" fill="grey" transform="rotate(-11.8854,929.87,327.455)"/>
   </g>
   <g id="cell7" type="ellipsey" dead="false" >
  <ellipse cx="257.302" cy="428.613" rx="50" ry="21.7945" stroke-width="0.5" stroke="black" fill="grey" transform="rotate(88.9088,257.302,428.613)"/>
   </g>
   <g id="cell8" type="ellipsey" dead="false" >
  <ellipse cx="782.277" cy="697.429" rx="50" ry="21.7945" stroke-width="0.5" stroke="black" fill="grey" transform="rotate(7.91704,782.277,697.429)"/>
   </g>
   <g id="cell9" type="secretor_cell" dead="false" >
  <ellipse cx="178.333" cy="700" rx="25" ry="25" stroke-width="0.5" stroke="black" fill="red" transform="rotate(-8.32024,178.333,700)"/>
   </g>
  </g>
 </g>
  <rect x="775" y="1035" width="200" height="10" stroke-width="2" stroke="rgb(255,255,255)" fill="rgb(0,0,0)"/>
  <text x="781.25" y="1028.75"
   font-family="Arial" font-size="25" fill="black" >
   200 &#956;m
  </text>
  <text x="25" y="1045"
   font-family="Arial" font-size="18.75" fill="black" >
   0 days, 0 hours, 0 minutes, and 1.4650 seconds
  </text>
  <rect x="0" y="70" width="1000" height="1000" stroke-width="2" stroke="rgb(0,0,0)" fill="none"/>
</svg>
