<?xml version="1.0" encoding="UTF-8" standalone="no"?>
<!-- Created with PhysiCell (http://PhysiCell.MathCancer.org/) -->
<svg 
 xmlns:dc="http://purl.org/dc/elements/1.1/" 
 xmlns:cc="http://creativecommons.org/ns#" 
 xmlns:rdf="http://www.w3.org/1999/02/22-rdf-syntax-ns#" 
 xmlns:svg="http://www.w3.org/2000/svg" 
 xmlns="http://www.w3.org/2000/svg" 
 version="1.1" 
 width="1000" 
 height="1070" 
 id="svg2">
  <rect x="0" y="0" width="1000" height="1070" stroke-width="2" stroke="white" fill="white"/>
  <text x="12.5" y="30"
   font-family="Arial" font-size="25" fill="black" >
   Current time: 0 days, 2 hours, and 40.00 minutes, z = 0.00 &#956;m
  </text>
  <text x="12.5" y="57.5"
   font-family="Arial" font-size="23.75" fill="black" >
   10 agents
  </text>
 <g id="tissue" 
    transform="translate(0,1070) scale(1,-1)">
  <g id="ECM">
  </g>
  <g id="cells">
   <g id="cell0" type="ellipsey" dead="false" >
  <ellipse cx="141.486" cy="985.049" rx="50" ry="21.7945" stroke-width="0.5" stroke="black" fill="grey" transform="rotate(-89.9999,141.486,985.049)"/>
   </g>
   <g id="cell1" type="ellipsey" dead="false" >
  <ellipse cx="55.3466" cy="606.059" rx="50" ry="21.7945" stroke-width="0.5" stroke="black" fill="grey" transform="rotate(14.11,55.3466,606.059)"/>
   </g>
   <g id="cell2" type="ellipsey" dead="false" >
  <ellipse cx="532.439" cy="57.0635" rx="50" ry="21.7945" stroke-width="0.5" stroke="black" fill="grey" transform="rotate(-85.4081,532.439,57.0635)"/>
   </g>
   <g id="cell3" type="ellipsey" dead="false" >
  <ellipse cx="625.698" cy="430.737" rx="50" ry="21.7945" stroke-width="0.5" stroke="black" fill="grey" transform="rotate(-31.3333,625.698,430.737)"/>
   </g>
   <g id="cell4" type="ellipsey" dead="false" >
  <ellipse cx="824.228" cy="880.518" rx="50" ry="21.7945" stroke-width="0.5" stroke="black" fill="grey" transform="rotate(51.4282,824.228,880.518)"/>
   </g>
   <g id="cell5" type="ellipsey" dead="false" >
  <ellipse cx="434.417" cy="642.967" rx="50" ry="21.7945" stroke-width="0.5" stroke="black" fill="grey" transform="rotate(-8.409,434.417,642.967)"/>
   </g>
   <g id="cell6" type="ellipsey" dead="false" >
  <ellipse cx="923.125" cy="335.458" rx="50" ry="21.7945" stroke-width="0.5" stroke="black" fill="grey" transform="rotate(-9.76698,923.125,335.458)"/>
   </g>
   <g id="cell7" type="ellipsey" dead="false" >
  <ellipse cx="259.256" cy="437.762" rx="50" ry="21.7945" stroke-width="0.5" stroke="black" fill="grey" transform="rotate(83.8967,259.256,437.762)"/>
   </g>
   <g id="cell8" type="ellipsey" dead="false" >
  <ellipse cx="776.925" cy="682.855" rx="50" ry="21.7945" stroke-width="0.5" stroke="black" fill="grey" transform="rotate(13.5167,776.925,682.855)"/>
   </g>
   <g id="cell9" type="secretor_cell" dead="false" >
  <ellipse cx="178.333" cy="700" rx="25" ry="25" stroke-width="0.5" stroke="black" fill="red" transform="rotate(-9.72025,178.333,700)"/>
   </g>
  </g>
 </g>
  <rect x="775" y="1035" width="200" height="10" stroke-width="2" stroke="rgb(255,255,255)" fill="rgb(0,0,0)"/>
  <text x="781.25" y="1028.75"
   font-family="Arial" font-size="25" fill="black" >
   200 &#956;m
  </text>
  <text x="25" y="1045"
   font-family="Arial" font-size="18.75" fill="black" >
   0 days, 0 hours, 0 minutes, and 2.9044 seconds
  </text>
  <rect x="0" y="70" width="1000" height="1000" stroke-width="2" stroke="rgb(0,0,0)" fill="none"/>
</svg>
