<?xml version="1.0" encoding="UTF-8" standalone="no"?>
<!-- Created with PhysiCell (http://PhysiCell.MathCancer.org/) -->
<svg 
 xmlns:dc="http://purl.org/dc/elements/1.1/" 
 xmlns:cc="http://creativecommons.org/ns#" 
 xmlns:rdf="http://www.w3.org/1999/02/22-rdf-syntax-ns#" 
 xmlns:svg="http://www.w3.org/2000/svg" 
 xmlns="http://www.w3.org/2000/svg" 
 version="1.1" 
 width="1000" 
 height="1070" 
 id="svg2">
  <rect x="0" y="0" width="1000" height="1070" stroke-width="2" stroke="white" fill="white"/>
  <text x="12.5" y="30"
   font-family="Arial" font-size="25" fill="black" >
   Current time: 0 days, 6 hours, and 20.00 minutes, z = 0.00 &#956;m
  </text>
  <text x="12.5" y="57.5"
   font-family="Arial" font-size="23.75" fill="black" >
   10 agents
  </text>
 <g id="tissue" 
    transform="translate(0,1070) scale(1,-1)">
  <g id="ECM">
  </g>
  <g id="cells">
   <g id="cell0" type="ellipsey" dead="false" >
  <ellipse cx="146.034" cy="989.354" rx="50" ry="21.7945" stroke-width="0.5" stroke="black" fill="grey" transform="rotate(-90,146.034,989.354)"/>
   </g>
   <g id="cell1" type="ellipsey" dead="false" >
  <ellipse cx="77.0343" cy="608.846" rx="50" ry="21.7945" stroke-width="0.5" stroke="black" fill="grey" transform="rotate(22.1085,77.0343,608.846)"/>
   </g>
   <g id="cell2" type="ellipsey" dead="false" >
  <ellipse cx="525.394" cy="56.9039" rx="50" ry="21.7945" stroke-width="0.5" stroke="black" fill="grey" transform="rotate(-86.071,525.394,56.9039)"/>
   </g>
   <g id="cell3" type="ellipsey" dead="false" >
  <ellipse cx="636.646" cy="417.373" rx="50" ry="21.7945" stroke-width="0.5" stroke="black" fill="grey" transform="rotate(-34.0592,636.646,417.373)"/>
   </g>
   <g id="cell4" type="ellipsey" dead="false" >
  <ellipse cx="810.188" cy="873.241" rx="50" ry="21.7945" stroke-width="0.5" stroke="black" fill="grey" transform="rotate(49.2099,810.188,873.241)"/>
   </g>
   <g id="cell5" type="ellipsey" dead="false" >
  <ellipse cx="427.36" cy="634.94" rx="50" ry="21.7945" stroke-width="0.5" stroke="black" fill="grey" transform="rotate(-12.1252,427.36,634.94)"/>
   </g>
   <g id="cell6" type="ellipsey" dead="false" >
  <ellipse cx="926.916" cy="345.987" rx="50" ry="21.7945" stroke-width="0.5" stroke="black" fill="grey" transform="rotate(-8.38052,926.916,345.987)"/>
   </g>
   <g id="cell7" type="ellipsey" dead="false" >
  <ellipse cx="257.39" cy="438.805" rx="50" ry="21.7945" stroke-width="0.5" stroke="black" fill="grey" transform="rotate(82.7288,257.39,438.805)"/>
   </g>
   <g id="cell8" type="ellipsey" dead="false" >
  <ellipse cx="791.142" cy="692.407" rx="50" ry="21.7945" stroke-width="0.5" stroke="black" fill="grey" transform="rotate(14.1539,791.142,692.407)"/>
   </g>
   <g id="cell9" type="secretor_cell" dead="false" >
  <ellipse cx="178.333" cy="700" rx="25" ry="25" stroke-width="0.5" stroke="black" fill="red" transform="rotate(-9.98504,178.333,700)"/>
   </g>
  </g>
 </g>
  <rect x="775" y="1035" width="200" height="10" stroke-width="2" stroke="rgb(255,255,255)" fill="rgb(0,0,0)"/>
  <text x="781.25" y="1028.75"
   font-family="Arial" font-size="25" fill="black" >
   200 &#956;m
  </text>
  <text x="25" y="1045"
   font-family="Arial" font-size="18.75" fill="black" >
   0 days, 0 hours, 0 minutes, and 6.8508 seconds
  </text>
  <rect x="0" y="70" width="1000" height="1000" stroke-width="2" stroke="rgb(0,0,0)" fill="none"/>
</svg>
