<?xml version="1.0" encoding="UTF-8" standalone="no"?>
<!-- Created with PhysiCell (http://PhysiCell.MathCancer.org/) -->
<svg 
 xmlns:dc="http://purl.org/dc/elements/1.1/" 
 xmlns:cc="http://creativecommons.org/ns#" 
 xmlns:rdf="http://www.w3.org/1999/02/22-rdf-syntax-ns#" 
 xmlns:svg="http://www.w3.org/2000/svg" 
 xmlns="http://www.w3.org/2000/svg" 
 version="1.1" 
 width="1000" 
 height="1070" 
 id="svg2">
  <rect x="0" y="0" width="1000" height="1070" stroke-width="2" stroke="white" fill="white"/>
  <text x="12.5" y="30"
   font-family="Arial" font-size="25" fill="black" >
   Current time: 0 days, 4 hours, and 40.00 minutes, z = 0.00 &#956;m
  </text>
  <text x="12.5" y="57.5"
   font-family="Arial" font-size="23.75" fill="black" >
   10 agents
  </text>
 <g id="tissue" 
    transform="translate(0,1070) scale(1,-1)">
  <g id="ECM">
  </g>
  <g id="cells">
   <g id="cell0" type="ellipsey" dead="false" >
  <ellipse cx="143.136" cy="977.58" rx="50" ry="21.7945" stroke-width="0.5" stroke="black" fill="grey" transform="rotate(-86.4168,143.136,977.58)"/>
   </g>
   <g id="cell1" type="ellipsey" dead="false" >
  <ellipse cx="64.6528" cy="608.331" rx="50" ry="21.7945" stroke-width="0.5" stroke="black" fill="grey" transform="rotate(21.6461,64.6528,608.331)"/>
   </g>
   <g id="cell2" type="ellipsey" dead="false" >
  <ellipse cx="521.606" cy="67.3363" rx="50" ry="21.7945" stroke-width="0.5" stroke="black" fill="grey" transform="rotate(-84.2516,521.606,67.3363)"/>
   </g>
   <g id="cell3" type="ellipsey" dead="false" >
  <ellipse cx="631.208" cy="418.488" rx="50" ry="21.7945" stroke-width="0.5" stroke="black" fill="grey" transform="rotate(-32.9559,631.208,418.488)"/>
   </g>
   <g id="cell4" type="ellipsey" dead="false" >
  <ellipse cx="813.96" cy="888.052" rx="50" ry="21.7945" stroke-width="0.5" stroke="black" fill="grey" transform="rotate(54.9508,813.96,888.052)"/>
   </g>
   <g id="cell5" type="ellipsey" dead="false" >
  <ellipse cx="429.074" cy="628.367" rx="50" ry="21.7945" stroke-width="0.5" stroke="black" fill="grey" transform="rotate(-12.1671,429.074,628.367)"/>
   </g>
   <g id="cell6" type="ellipsey" dead="false" >
  <ellipse cx="935.8" cy="337.564" rx="50" ry="21.7945" stroke-width="0.5" stroke="black" fill="grey" transform="rotate(-9.0285,935.8,337.564)"/>
   </g>
   <g id="cell7" type="ellipsey" dead="false" >
  <ellipse cx="261.514" cy="439.575" rx="50" ry="21.7945" stroke-width="0.5" stroke="black" fill="grey" transform="rotate(86.9481,261.514,439.575)"/>
   </g>
   <g id="cell8" type="ellipsey" dead="false" >
  <ellipse cx="787.395" cy="679.586" rx="50" ry="21.7945" stroke-width="0.5" stroke="black" fill="grey" transform="rotate(11.0977,787.395,679.586)"/>
   </g>
   <g id="cell9" type="secretor_cell" dead="false" >
  <ellipse cx="178.333" cy="700" rx="25" ry="25" stroke-width="0.5" stroke="black" fill="red" transform="rotate(-9.96684,178.333,700)"/>
   </g>
  </g>
 </g>
  <rect x="775" y="1035" width="200" height="10" stroke-width="2" stroke="rgb(255,255,255)" fill="rgb(0,0,0)"/>
  <text x="781.25" y="1028.75"
   font-family="Arial" font-size="25" fill="black" >
   200 &#956;m
  </text>
  <text x="25" y="1045"
   font-family="Arial" font-size="18.75" fill="black" >
   0 days, 0 hours, 0 minutes, and 5.0824 seconds
  </text>
  <rect x="0" y="70" width="1000" height="1000" stroke-width="2" stroke="rgb(0,0,0)" fill="none"/>
</svg>
