<?xml version="1.0" encoding="UTF-8" standalone="no"?>
<!-- Created with PhysiCell (http://PhysiCell.MathCancer.org/) -->
<svg 
 xmlns:dc="http://purl.org/dc/elements/1.1/" 
 xmlns:cc="http://creativecommons.org/ns#" 
 xmlns:rdf="http://www.w3.org/1999/02/22-rdf-syntax-ns#" 
 xmlns:svg="http://www.w3.org/2000/svg" 
 xmlns="http://www.w3.org/2000/svg" 
 version="1.1" 
 width="1000" 
 height="1070" 
 id="svg2">
  <rect x="0" y="0" width="1000" height="1070" stroke-width="2" stroke="white" fill="white"/>
  <text x="12.5" y="30"
   font-family="Arial" font-size="25" fill="black" >
   Current time: 0 days, 2 hours, and 20.00 minutes, z = 0.00 &#956;m
  </text>
  <text x="12.5" y="57.5"
   font-family="Arial" font-size="23.75" fill="black" >
   10 agents
  </text>
 <g id="tissue" 
    transform="translate(0,1070) scale(1,-1)">
  <g id="ECM">
  </g>
  <g id="cells">
   <g id="cell0" type="ellipsey" dead="false" >
  <ellipse cx="139.23" cy="981.922" rx="50" ry="21.7945" stroke-width="0.5" stroke="black" fill="grey" transform="rotate(-89.9982,139.23,981.922)"/>
   </g>
   <g id="cell1" type="ellipsey" dead="false" >
  <ellipse cx="53.5789" cy="609.723" rx="50" ry="21.7945" stroke-width="0.5" stroke="black" fill="grey" transform="rotate(14.4232,53.5789,609.723)"/>
   </g>
   <g id="cell2" type="ellipsey" dead="false" >
  <ellipse cx="534.618" cy="64.1727" rx="50" ry="21.7945" stroke-width="0.5" stroke="black" fill="grey" transform="rotate(-83.2763,534.618,64.1727)"/>
   </g>
   <g id="cell3" type="ellipsey" dead="false" >
  <ellipse cx="626.946" cy="431.792" rx="50" ry="21.7945" stroke-width="0.5" stroke="black" fill="grey" transform="rotate(-31.4035,626.946,431.792)"/>
   </g>
   <g id="cell4" type="ellipsey" dead="false" >
  <ellipse cx="830.481" cy="882.345" rx="50" ry="21.7945" stroke-width="0.5" stroke="black" fill="grey" transform="rotate(51.2369,830.481,882.345)"/>
   </g>
   <g id="cell5" type="ellipsey" dead="false" >
  <ellipse cx="442.843" cy="637.67" rx="50" ry="21.7945" stroke-width="0.5" stroke="black" fill="grey" transform="rotate(-11.4688,442.843,637.67)"/>
   </g>
   <g id="cell6" type="ellipsey" dead="false" >
  <ellipse cx="920.118" cy="330.474" rx="50" ry="21.7945" stroke-width="0.5" stroke="black" fill="grey" transform="rotate(-9.82194,920.118,330.474)"/>
   </g>
   <g id="cell7" type="ellipsey" dead="false" >
  <ellipse cx="256.497" cy="429.281" rx="50" ry="21.7945" stroke-width="0.5" stroke="black" fill="grey" transform="rotate(84.4754,256.497,429.281)"/>
   </g>
   <g id="cell8" type="ellipsey" dead="false" >
  <ellipse cx="779.288" cy="687.982" rx="50" ry="21.7945" stroke-width="0.5" stroke="black" fill="grey" transform="rotate(12.9921,779.288,687.982)"/>
   </g>
   <g id="cell9" type="secretor_cell" dead="false" >
  <ellipse cx="178.333" cy="700" rx="25" ry="25" stroke-width="0.5" stroke="black" fill="red" transform="rotate(-9.57399,178.333,700)"/>
   </g>
  </g>
 </g>
  <rect x="775" y="1035" width="200" height="10" stroke-width="2" stroke="rgb(255,255,255)" fill="rgb(0,0,0)"/>
  <text x="781.25" y="1028.75"
   font-family="Arial" font-size="25" fill="black" >
   200 &#956;m
  </text>
  <text x="25" y="1045"
   font-family="Arial" font-size="18.75" fill="black" >
   0 days, 0 hours, 0 minutes, and 2.5365 seconds
  </text>
  <rect x="0" y="70" width="1000" height="1000" stroke-width="2" stroke="rgb(0,0,0)" fill="none"/>
</svg>
