<?xml version="1.0" encoding="UTF-8" standalone="no"?>
<!-- Created with PhysiCell (http://PhysiCell.MathCancer.org/) -->
<svg 
 xmlns:dc="http://purl.org/dc/elements/1.1/" 
 xmlns:cc="http://creativecommons.org/ns#" 
 xmlns:rdf="http://www.w3.org/1999/02/22-rdf-syntax-ns#" 
 xmlns:svg="http://www.w3.org/2000/svg" 
 xmlns="http://www.w3.org/2000/svg" 
 version="1.1" 
 width="1000" 
 height="1070" 
 id="svg2">
  <rect x="0" y="0" width="1000" height="1070" stroke-width="2" stroke="white" fill="white"/>
  <text x="12.5" y="30"
   font-family="Arial" font-size="25" fill="black" >
   Current time: 0 days, 5 hours, and 40.00 minutes, z = 0.00 &#956;m
  </text>
  <text x="12.5" y="57.5"
   font-family="Arial" font-size="23.75" fill="black" >
   10 agents
  </text>
 <g id="tissue" 
    transform="translate(0,1070) scale(1,-1)">
  <g id="ECM">
  </g>
  <g id="cells">
   <g id="cell0" type="ellipsey" dead="false" >
  <ellipse cx="140.785" cy="992.403" rx="50" ry="21.7945" stroke-width="0.5" stroke="black" fill="grey" transform="rotate(-89.9998,140.785,992.403)"/>
   </g>
   <g id="cell1" type="ellipsey" dead="false" >
  <ellipse cx="69.9805" cy="607.582" rx="50" ry="21.7945" stroke-width="0.5" stroke="black" fill="grey" transform="rotate(21.6387,69.9805,607.582)"/>
   </g>
   <g id="cell2" type="ellipsey" dead="false" >
  <ellipse cx="521.218" cy="59.8039" rx="50" ry="21.7945" stroke-width="0.5" stroke="black" fill="grey" transform="rotate(-85.7245,521.218,59.8039)"/>
   </g>
   <g id="cell3" type="ellipsey" dead="false" >
  <ellipse cx="625.872" cy="422.657" rx="50" ry="21.7945" stroke-width="0.5" stroke="black" fill="grey" transform="rotate(-31.2085,625.872,422.657)"/>
   </g>
   <g id="cell4" type="ellipsey" dead="false" >
  <ellipse cx="809.851" cy="875.859" rx="50" ry="21.7945" stroke-width="0.5" stroke="black" fill="grey" transform="rotate(49.2082,809.851,875.859)"/>
   </g>
   <g id="cell5" type="ellipsey" dead="false" >
  <ellipse cx="444.21" cy="635.483" rx="50" ry="21.7945" stroke-width="0.5" stroke="black" fill="grey" transform="rotate(-10.0721,444.21,635.483)"/>
   </g>
   <g id="cell6" type="ellipsey" dead="false" >
  <ellipse cx="926.462" cy="336.624" rx="50" ry="21.7945" stroke-width="0.5" stroke="black" fill="grey" transform="rotate(-9.08028,926.462,336.624)"/>
   </g>
   <g id="cell7" type="ellipsey" dead="false" >
  <ellipse cx="249.947" cy="441.429" rx="50" ry="21.7945" stroke-width="0.5" stroke="black" fill="grey" transform="rotate(85.1854,249.947,441.429)"/>
   </g>
   <g id="cell8" type="ellipsey" dead="false" >
  <ellipse cx="785.344" cy="687.93" rx="50" ry="21.7945" stroke-width="0.5" stroke="black" fill="grey" transform="rotate(14.1407,785.344,687.93)"/>
   </g>
   <g id="cell9" type="secretor_cell" dead="false" >
  <ellipse cx="178.333" cy="700" rx="25" ry="25" stroke-width="0.5" stroke="black" fill="red" transform="rotate(-9.98172,178.333,700)"/>
   </g>
  </g>
 </g>
  <rect x="775" y="1035" width="200" height="10" stroke-width="2" stroke="rgb(255,255,255)" fill="rgb(0,0,0)"/>
  <text x="781.25" y="1028.75"
   font-family="Arial" font-size="25" fill="black" >
   200 &#956;m
  </text>
  <text x="25" y="1045"
   font-family="Arial" font-size="18.75" fill="black" >
   0 days, 0 hours, 0 minutes, and 6.1559 seconds
  </text>
  <rect x="0" y="70" width="1000" height="1000" stroke-width="2" stroke="rgb(0,0,0)" fill="none"/>
</svg>
