<?xml version="1.0" encoding="UTF-8" standalone="no"?>
<!-- Created with PhysiCell (http://PhysiCell.MathCancer.org/) -->
<svg 
 xmlns:dc="http://purl.org/dc/elements/1.1/" 
 xmlns:cc="http://creativecommons.org/ns#" 
 xmlns:rdf="http://www.w3.org/1999/02/22-rdf-syntax-ns#" 
 xmlns:svg="http://www.w3.org/2000/svg" 
 xmlns="http://www.w3.org/2000/svg" 
 version="1.1" 
 width="1000" 
 height="1070" 
 id="svg2">
  <rect x="0" y="0" width="1000" height="1070" stroke-width="2" stroke="white" fill="white"/>
  <text x="12.5" y="30"
   font-family="Arial" font-size="25" fill="black" >
   Current time: 0 days, 4 hours, and 10.00 minutes, z = 0.00 &#956;m
  </text>
  <text x="12.5" y="57.5"
   font-family="Arial" font-size="23.75" fill="black" >
   10 agents
  </text>
 <g id="tissue" 
    transform="translate(0,1070) scale(1,-1)">
  <g id="ECM">
  </g>
  <g id="cells">
   <g id="cell0" type="ellipsey" dead="false" >
  <ellipse cx="137.306" cy="985.949" rx="50" ry="21.7945" stroke-width="0.5" stroke="black" fill="grey" transform="rotate(-90,137.306,985.949)"/>
   </g>
   <g id="cell1" type="ellipsey" dead="false" >
  <ellipse cx="63.3972" cy="612.731" rx="50" ry="21.7945" stroke-width="0.5" stroke="black" fill="grey" transform="rotate(21.4262,63.3972,612.731)"/>
   </g>
   <g id="cell2" type="ellipsey" dead="false" >
  <ellipse cx="532.289" cy="53.5376" rx="50" ry="21.7945" stroke-width="0.5" stroke="black" fill="grey" transform="rotate(-86.0577,532.289,53.5376)"/>
   </g>
   <g id="cell3" type="ellipsey" dead="false" >
  <ellipse cx="630.348" cy="426.601" rx="50" ry="21.7945" stroke-width="0.5" stroke="black" fill="grey" transform="rotate(-31.214,630.348,426.601)"/>
   </g>
   <g id="cell4" type="ellipsey" dead="false" >
  <ellipse cx="814.093" cy="890.484" rx="50" ry="21.7945" stroke-width="0.5" stroke="black" fill="grey" transform="rotate(54.9035,814.093,890.484)"/>
   </g>
   <g id="cell5" type="ellipsey" dead="false" >
  <ellipse cx="424.984" cy="633.167" rx="50" ry="21.7945" stroke-width="0.5" stroke="black" fill="grey" transform="rotate(-12.189,424.984,633.167)"/>
   </g>
   <g id="cell6" type="ellipsey" dead="false" >
  <ellipse cx="926.73" cy="340.781" rx="50" ry="21.7945" stroke-width="0.5" stroke="black" fill="grey" transform="rotate(-8.57579,926.73,340.781)"/>
   </g>
   <g id="cell7" type="ellipsey" dead="false" >
  <ellipse cx="252.695" cy="434.53" rx="50" ry="21.7945" stroke-width="0.5" stroke="black" fill="grey" transform="rotate(82.8739,252.695,434.53)"/>
   </g>
   <g id="cell8" type="ellipsey" dead="false" >
  <ellipse cx="785.661" cy="678.953" rx="50" ry="21.7945" stroke-width="0.5" stroke="black" fill="grey" transform="rotate(11.0761,785.661,678.953)"/>
   </g>
   <g id="cell9" type="secretor_cell" dead="false" >
  <ellipse cx="178.333" cy="700" rx="25" ry="25" stroke-width="0.5" stroke="black" fill="red" transform="rotate(-9.94845,178.333,700)"/>
   </g>
  </g>
 </g>
  <rect x="775" y="1035" width="200" height="10" stroke-width="2" stroke="rgb(255,255,255)" fill="rgb(0,0,0)"/>
  <text x="781.25" y="1028.75"
   font-family="Arial" font-size="25" fill="black" >
   200 &#956;m
  </text>
  <text x="25" y="1045"
   font-family="Arial" font-size="18.75" fill="black" >
   0 days, 0 hours, 0 minutes, and 4.5490 seconds
  </text>
  <rect x="0" y="70" width="1000" height="1000" stroke-width="2" stroke="rgb(0,0,0)" fill="none"/>
</svg>
