<?xml version="1.0" encoding="UTF-8" standalone="no"?>
<!-- Created with PhysiCell (http://PhysiCell.MathCancer.org/) -->
<svg 
 xmlns:dc="http://purl.org/dc/elements/1.1/" 
 xmlns:cc="http://creativecommons.org/ns#" 
 xmlns:rdf="http://www.w3.org/1999/02/22-rdf-syntax-ns#" 
 xmlns:svg="http://www.w3.org/2000/svg" 
 xmlns="http://www.w3.org/2000/svg" 
 version="1.1" 
 width="1000" 
 height="1070" 
 id="svg2">
  <rect x="0" y="0" width="1000" height="1070" stroke-width="2" stroke="white" fill="white"/>
  <text x="12.5" y="30"
   font-family="Arial" font-size="25" fill="black" >
   Current time: 0 days, 1 hours, and 0.00 minutes, z = 0.00 &#956;m
  </text>
  <text x="12.5" y="57.5"
   font-family="Arial" font-size="23.75" fill="black" >
   10 agents
  </text>
 <g id="tissue" 
    transform="translate(0,1070) scale(1,-1)">
  <g id="ECM">
  </g>
  <g id="cells">
   <g id="cell0" type="ellipsey" dead="false" >
  <ellipse cx="151.392" cy="981.219" rx="50" ry="21.7945" stroke-width="0.5" stroke="black" fill="grey" transform="rotate(-89.4525,151.392,981.219)"/>
   </g>
   <g id="cell1" type="ellipsey" dead="false" >
  <ellipse cx="51.106" cy="597.891" rx="50" ry="21.7945" stroke-width="0.5" stroke="black" fill="grey" transform="rotate(16.3632,51.106,597.891)"/>
   </g>
   <g id="cell2" type="ellipsey" dead="false" >
  <ellipse cx="537.986" cy="66.1123" rx="50" ry="21.7945" stroke-width="0.5" stroke="black" fill="grey" transform="rotate(-77.2351,537.986,66.1123)"/>
   </g>
   <g id="cell3" type="ellipsey" dead="false" >
  <ellipse cx="617.783" cy="424.716" rx="50" ry="21.7945" stroke-width="0.5" stroke="black" fill="grey" transform="rotate(-33.1769,617.783,424.716)"/>
   </g>
   <g id="cell4" type="ellipsey" dead="false" >
  <ellipse cx="839.495" cy="895.381" rx="50" ry="21.7945" stroke-width="0.5" stroke="black" fill="grey" transform="rotate(43.8606,839.495,895.381)"/>
   </g>
   <g id="cell5" type="ellipsey" dead="false" >
  <ellipse cx="418.386" cy="638.313" rx="50" ry="21.7945" stroke-width="0.5" stroke="black" fill="grey" transform="rotate(-15.2123,418.386,638.313)"/>
   </g>
   <g id="cell6" type="ellipsey" dead="false" >
  <ellipse cx="923.874" cy="328" rx="50" ry="21.7945" stroke-width="0.5" stroke="black" fill="grey" transform="rotate(-14.1365,923.874,328)"/>
   </g>
   <g id="cell7" type="ellipsey" dead="false" >
  <ellipse cx="255.602" cy="435.725" rx="50" ry="21.7945" stroke-width="0.5" stroke="black" fill="grey" transform="rotate(-87.3287,255.602,435.725)"/>
   </g>
   <g id="cell8" type="ellipsey" dead="false" >
  <ellipse cx="780.58" cy="698.639" rx="50" ry="21.7945" stroke-width="0.5" stroke="black" fill="grey" transform="rotate(4.68064,780.58,698.639)"/>
   </g>
   <g id="cell9" type="secretor_cell" dead="false" >
  <ellipse cx="178.333" cy="700" rx="25" ry="25" stroke-width="0.5" stroke="black" fill="red" transform="rotate(-7.14734,178.333,700)"/>
   </g>
  </g>
 </g>
  <rect x="775" y="1035" width="200" height="10" stroke-width="2" stroke="rgb(255,255,255)" fill="rgb(0,0,0)"/>
  <text x="781.25" y="1028.75"
   font-family="Arial" font-size="25" fill="black" >
   200 &#956;m
  </text>
  <text x="25" y="1045"
   font-family="Arial" font-size="18.75" fill="black" >
   0 days, 0 hours, 0 minutes, and 1.0971 seconds
  </text>
  <rect x="0" y="70" width="1000" height="1000" stroke-width="2" stroke="rgb(0,0,0)" fill="none"/>
</svg>
