<?xml version="1.0" encoding="UTF-8" standalone="no"?>
<!-- Created with PhysiCell (http://PhysiCell.MathCancer.org/) -->
<svg 
 xmlns:dc="http://purl.org/dc/elements/1.1/" 
 xmlns:cc="http://creativecommons.org/ns#" 
 xmlns:rdf="http://www.w3.org/1999/02/22-rdf-syntax-ns#" 
 xmlns:svg="http://www.w3.org/2000/svg" 
 xmlns="http://www.w3.org/2000/svg" 
 version="1.1" 
 width="1000" 
 height="1070" 
 id="svg2">
  <rect x="0" y="0" width="1000" height="1070" stroke-width="2" stroke="white" fill="white"/>
  <text x="12.5" y="30"
   font-family="Arial" font-size="25" fill="black" >
   Current time: 0 days, 4 hours, and 0.00 minutes, z = 0.00 &#956;m
  </text>
  <text x="12.5" y="57.5"
   font-family="Arial" font-size="23.75" fill="black" >
   10 agents
  </text>
 <g id="tissue" 
    transform="translate(0,1070) scale(1,-1)">
  <g id="ECM">
  </g>
  <g id="cells">
   <g id="cell0" type="ellipsey" dead="false" >
  <ellipse cx="133.99" cy="990.579" rx="50" ry="21.7945" stroke-width="0.5" stroke="black" fill="grey" transform="rotate(-90,133.99,990.579)"/>
   </g>
   <g id="cell1" type="ellipsey" dead="false" >
  <ellipse cx="63.1987" cy="614.854" rx="50" ry="21.7945" stroke-width="0.5" stroke="black" fill="grey" transform="rotate(20.3377,63.1987,614.854)"/>
   </g>
   <g id="cell2" type="ellipsey" dead="false" >
  <ellipse cx="528.994" cy="54.1886" rx="50" ry="21.7945" stroke-width="0.5" stroke="black" fill="grey" transform="rotate(-86.0446,528.994,54.1886)"/>
   </g>
   <g id="cell3" type="ellipsey" dead="false" >
  <ellipse cx="627.876" cy="429.5" rx="50" ry="21.7945" stroke-width="0.5" stroke="black" fill="grey" transform="rotate(-31.219,627.876,429.5)"/>
   </g>
   <g id="cell4" type="ellipsey" dead="false" >
  <ellipse cx="812.254" cy="894.736" rx="50" ry="21.7945" stroke-width="0.5" stroke="black" fill="grey" transform="rotate(54.8796,812.254,894.736)"/>
   </g>
   <g id="cell5" type="ellipsey" dead="false" >
  <ellipse cx="427.033" cy="633.34" rx="50" ry="21.7945" stroke-width="0.5" stroke="black" fill="grey" transform="rotate(-12.1366,427.033,633.34)"/>
   </g>
   <g id="cell6" type="ellipsey" dead="false" >
  <ellipse cx="929.473" cy="339.463" rx="50" ry="21.7945" stroke-width="0.5" stroke="black" fill="grey" transform="rotate(-8.70964,929.473,339.463)"/>
   </g>
   <g id="cell7" type="ellipsey" dead="false" >
  <ellipse cx="252.73" cy="431.054" rx="50" ry="21.7945" stroke-width="0.5" stroke="black" fill="grey" transform="rotate(82.9131,252.73,431.054)"/>
   </g>
   <g id="cell8" type="ellipsey" dead="false" >
  <ellipse cx="782.159" cy="676.87" rx="50" ry="21.7945" stroke-width="0.5" stroke="black" fill="grey" transform="rotate(11.2712,782.159,676.87)"/>
   </g>
   <g id="cell9" type="secretor_cell" dead="false" >
  <ellipse cx="178.333" cy="700" rx="25" ry="25" stroke-width="0.5" stroke="black" fill="red" transform="rotate(-9.93921,178.333,700)"/>
   </g>
  </g>
 </g>
  <rect x="775" y="1035" width="200" height="10" stroke-width="2" stroke="rgb(255,255,255)" fill="rgb(0,0,0)"/>
  <text x="781.25" y="1028.75"
   font-family="Arial" font-size="25" fill="black" >
   200 &#956;m
  </text>
  <text x="25" y="1045"
   font-family="Arial" font-size="18.75" fill="black" >
   0 days, 0 hours, 0 minutes, and 4.3796 seconds
  </text>
  <rect x="0" y="70" width="1000" height="1000" stroke-width="2" stroke="rgb(0,0,0)" fill="none"/>
</svg>
