<?xml version="1.0" encoding="UTF-8" standalone="no"?>
<!-- Created with PhysiCell (http://PhysiCell.MathCancer.org/) -->
<svg 
 xmlns:dc="http://purl.org/dc/elements/1.1/" 
 xmlns:cc="http://creativecommons.org/ns#" 
 xmlns:rdf="http://www.w3.org/1999/02/22-rdf-syntax-ns#" 
 xmlns:svg="http://www.w3.org/2000/svg" 
 xmlns="http://www.w3.org/2000/svg" 
 version="1.1" 
 width="1000" 
 height="1070" 
 id="svg2">
  <rect x="0" y="0" width="1000" height="1070" stroke-width="2" stroke="white" fill="white"/>
  <text x="12.5" y="30"
   font-family="Arial" font-size="25" fill="black" >
   Current time: 0 days, 1 hours, and 50.00 minutes, z = 0.00 &#956;m
  </text>
  <text x="12.5" y="57.5"
   font-family="Arial" font-size="23.75" fill="black" >
   10 agents
  </text>
 <g id="tissue" 
    transform="translate(0,1070) scale(1,-1)">
  <g id="ECM">
  </g>
  <g id="cells">
   <g id="cell0" type="ellipsey" dead="false" >
  <ellipse cx="144.216" cy="983.54" rx="50" ry="21.7945" stroke-width="0.5" stroke="black" fill="grey" transform="rotate(-89.6659,144.216,983.54)"/>
   </g>
   <g id="cell1" type="ellipsey" dead="false" >
  <ellipse cx="62.9984" cy="606.749" rx="50" ry="21.7945" stroke-width="0.5" stroke="black" fill="grey" transform="rotate(20.1577,62.9984,606.749)"/>
   </g>
   <g id="cell2" type="ellipsey" dead="false" >
  <ellipse cx="538.438" cy="62.3385" rx="50" ry="21.7945" stroke-width="0.5" stroke="black" fill="grey" transform="rotate(-82.3664,538.438,62.3385)"/>
   </g>
   <g id="cell3" type="ellipsey" dead="false" >
  <ellipse cx="626.758" cy="437.271" rx="50" ry="21.7945" stroke-width="0.5" stroke="black" fill="grey" transform="rotate(-31.564,626.758,437.271)"/>
   </g>
   <g id="cell4" type="ellipsey" dead="false" >
  <ellipse cx="834.75" cy="884.704" rx="50" ry="21.7945" stroke-width="0.5" stroke="black" fill="grey" transform="rotate(50.5525,834.75,884.704)"/>
   </g>
   <g id="cell5" type="ellipsey" dead="false" >
  <ellipse cx="430.044" cy="647.245" rx="50" ry="21.7945" stroke-width="0.5" stroke="black" fill="grey" transform="rotate(-8.05535,430.044,647.245)"/>
   </g>
   <g id="cell6" type="ellipsey" dead="false" >
  <ellipse cx="925.388" cy="336.951" rx="50" ry="21.7945" stroke-width="0.5" stroke="black" fill="grey" transform="rotate(-10.3197,925.388,336.951)"/>
   </g>
   <g id="cell7" type="ellipsey" dead="false" >
  <ellipse cx="261.8" cy="428.961" rx="50" ry="21.7945" stroke-width="0.5" stroke="black" fill="grey" transform="rotate(-88.4302,261.8,428.961)"/>
   </g>
   <g id="cell8" type="ellipsey" dead="false" >
  <ellipse cx="776.62" cy="695.549" rx="50" ry="21.7945" stroke-width="0.5" stroke="black" fill="grey" transform="rotate(11.2991,776.62,695.549)"/>
   </g>
   <g id="cell9" type="secretor_cell" dead="false" >
  <ellipse cx="178.333" cy="700" rx="25" ry="25" stroke-width="0.5" stroke="black" fill="red" transform="rotate(-9.17656,178.333,700)"/>
   </g>
  </g>
 </g>
  <rect x="775" y="1035" width="200" height="10" stroke-width="2" stroke="rgb(255,255,255)" fill="rgb(0,0,0)"/>
  <text x="781.25" y="1028.75"
   font-family="Arial" font-size="25" fill="black" >
   200 &#956;m
  </text>
  <text x="25" y="1045"
   font-family="Arial" font-size="18.75" fill="black" >
   0 days, 0 hours, 0 minutes, and 2.0062 seconds
  </text>
  <rect x="0" y="70" width="1000" height="1000" stroke-width="2" stroke="rgb(0,0,0)" fill="none"/>
</svg>
