<?xml version="1.0" encoding="UTF-8" standalone="no"?>
<!-- Created with PhysiCell (http://PhysiCell.MathCancer.org/) -->
<svg 
 xmlns:dc="http://purl.org/dc/elements/1.1/" 
 xmlns:cc="http://creativecommons.org/ns#" 
 xmlns:rdf="http://www.w3.org/1999/02/22-rdf-syntax-ns#" 
 xmlns:svg="http://www.w3.org/2000/svg" 
 xmlns="http://www.w3.org/2000/svg" 
 version="1.1" 
 width="1000" 
 height="1070" 
 id="svg2">
  <rect x="0" y="0" width="1000" height="1070" stroke-width="2" stroke="white" fill="white"/>
  <text x="12.5" y="30"
   font-family="Arial" font-size="25" fill="black" >
   Current time: 0 days, 2 hours, and 50.00 minutes, z = 0.00 &#956;m
  </text>
  <text x="12.5" y="57.5"
   font-family="Arial" font-size="23.75" fill="black" >
   10 agents
  </text>
 <g id="tissue" 
    transform="translate(0,1070) scale(1,-1)">
  <g id="ECM">
  </g>
  <g id="cells">
   <g id="cell0" type="ellipsey" dead="false" >
  <ellipse cx="138.272" cy="989.865" rx="50" ry="21.7945" stroke-width="0.5" stroke="black" fill="grey" transform="rotate(-90,138.272,989.865)"/>
   </g>
   <g id="cell1" type="ellipsey" dead="false" >
  <ellipse cx="54.461" cy="608.367" rx="50" ry="21.7945" stroke-width="0.5" stroke="black" fill="grey" transform="rotate(14.0831,54.461,608.367)"/>
   </g>
   <g id="cell2" type="ellipsey" dead="false" >
  <ellipse cx="528.619" cy="52.5189" rx="50" ry="21.7945" stroke-width="0.5" stroke="black" fill="grey" transform="rotate(-85.7449,528.619,52.5189)"/>
   </g>
   <g id="cell3" type="ellipsey" dead="false" >
  <ellipse cx="623.678" cy="427.306" rx="50" ry="21.7945" stroke-width="0.5" stroke="black" fill="grey" transform="rotate(-31.307,623.678,427.306)"/>
   </g>
   <g id="cell4" type="ellipsey" dead="false" >
  <ellipse cx="820.659" cy="882.382" rx="50" ry="21.7945" stroke-width="0.5" stroke="black" fill="grey" transform="rotate(50.5761,820.659,882.382)"/>
   </g>
   <g id="cell5" type="ellipsey" dead="false" >
  <ellipse cx="433.644" cy="642.143" rx="50" ry="21.7945" stroke-width="0.5" stroke="black" fill="grey" transform="rotate(-7.07021,433.644,642.143)"/>
   </g>
   <g id="cell6" type="ellipsey" dead="false" >
  <ellipse cx="920.261" cy="336.526" rx="50" ry="21.7945" stroke-width="0.5" stroke="black" fill="grey" transform="rotate(-9.43197,920.261,336.526)"/>
   </g>
   <g id="cell7" type="ellipsey" dead="false" >
  <ellipse cx="256.754" cy="433.309" rx="50" ry="21.7945" stroke-width="0.5" stroke="black" fill="grey" transform="rotate(83.6264,256.754,433.309)"/>
   </g>
   <g id="cell8" type="ellipsey" dead="false" >
  <ellipse cx="778.125" cy="687.28" rx="50" ry="21.7945" stroke-width="0.5" stroke="black" fill="grey" transform="rotate(13.8343,778.125,687.28)"/>
   </g>
   <g id="cell9" type="secretor_cell" dead="false" >
  <ellipse cx="178.333" cy="700" rx="25" ry="25" stroke-width="0.5" stroke="black" fill="red" transform="rotate(-9.77219,178.333,700)"/>
   </g>
  </g>
 </g>
  <rect x="775" y="1035" width="200" height="10" stroke-width="2" stroke="rgb(255,255,255)" fill="rgb(0,0,0)"/>
  <text x="781.25" y="1028.75"
   font-family="Arial" font-size="25" fill="black" >
   200 &#956;m
  </text>
  <text x="25" y="1045"
   font-family="Arial" font-size="18.75" fill="black" >
   0 days, 0 hours, 0 minutes, and 3.0981 seconds
  </text>
  <rect x="0" y="70" width="1000" height="1000" stroke-width="2" stroke="rgb(0,0,0)" fill="none"/>
</svg>
