<?xml version="1.0" encoding="UTF-8" standalone="no"?>
<!-- Created with PhysiCell (http://PhysiCell.MathCancer.org/) -->
<svg 
 xmlns:dc="http://purl.org/dc/elements/1.1/" 
 xmlns:cc="http://creativecommons.org/ns#" 
 xmlns:rdf="http://www.w3.org/1999/02/22-rdf-syntax-ns#" 
 xmlns:svg="http://www.w3.org/2000/svg" 
 xmlns="http://www.w3.org/2000/svg" 
 version="1.1" 
 width="1000" 
 height="1070" 
 id="svg2">
  <rect x="0" y="0" width="1000" height="1070" stroke-width="2" stroke="white" fill="white"/>
  <text x="12.5" y="30"
   font-family="Arial" font-size="25" fill="black" >
   Current time: 0 days, 0 hours, and 40.00 minutes, z = 0.00 &#956;m
  </text>
  <text x="12.5" y="57.5"
   font-family="Arial" font-size="23.75" fill="black" >
   10 agents
  </text>
 <g id="tissue" 
    transform="translate(0,1070) scale(1,-1)">
  <g id="ECM">
  </g>
  <g id="cells">
   <g id="cell0" type="ellipsey" dead="false" >
  <ellipse cx="154.97" cy="977.609" rx="50" ry="21.7945" stroke-width="0.5" stroke="black" fill="grey" transform="rotate(-86.7035,154.97,977.609)"/>
   </g>
   <g id="cell1" type="ellipsey" dead="false" >
  <ellipse cx="50.4382" cy="596.755" rx="50" ry="21.7945" stroke-width="0.5" stroke="black" fill="grey" transform="rotate(17.7813,50.4382,596.755)"/>
   </g>
   <g id="cell2" type="ellipsey" dead="false" >
  <ellipse cx="546.147" cy="60.4559" rx="50" ry="21.7945" stroke-width="0.5" stroke="black" fill="grey" transform="rotate(-75.7015,546.147,60.4559)"/>
   </g>
   <g id="cell3" type="ellipsey" dead="false" >
  <ellipse cx="613.192" cy="422.451" rx="50" ry="21.7945" stroke-width="0.5" stroke="black" fill="grey" transform="rotate(-33.8696,613.192,422.451)"/>
   </g>
   <g id="cell4" type="ellipsey" dead="false" >
  <ellipse cx="835.317" cy="899.744" rx="50" ry="21.7945" stroke-width="0.5" stroke="black" fill="grey" transform="rotate(40.4806,835.317,899.744)"/>
   </g>
   <g id="cell5" type="ellipsey" dead="false" >
  <ellipse cx="417.608" cy="647.014" rx="50" ry="21.7945" stroke-width="0.5" stroke="black" fill="grey" transform="rotate(-13.3416,417.608,647.014)"/>
   </g>
   <g id="cell6" type="ellipsey" dead="false" >
  <ellipse cx="931.34" cy="333.736" rx="50" ry="21.7945" stroke-width="0.5" stroke="black" fill="grey" transform="rotate(-18.2926,931.34,333.736)"/>
   </g>
   <g id="cell7" type="ellipsey" dead="false" >
  <ellipse cx="253.583" cy="441.515" rx="50" ry="21.7945" stroke-width="0.5" stroke="black" fill="grey" transform="rotate(-81.418,253.583,441.515)"/>
   </g>
   <g id="cell8" type="ellipsey" dead="false" >
  <ellipse cx="781.318" cy="693.901" rx="50" ry="21.7945" stroke-width="0.5" stroke="black" fill="grey" transform="rotate(0.856318,781.318,693.901)"/>
   </g>
   <g id="cell9" type="secretor_cell" dead="false" >
  <ellipse cx="178.333" cy="700" rx="25" ry="25" stroke-width="0.5" stroke="black" fill="red" transform="rotate(-4.85015,178.333,700)"/>
   </g>
  </g>
 </g>
  <rect x="775" y="1035" width="200" height="10" stroke-width="2" stroke="rgb(255,255,255)" fill="rgb(0,0,0)"/>
  <text x="781.25" y="1028.75"
   font-family="Arial" font-size="25" fill="black" >
   200 &#956;m
  </text>
  <text x="25" y="1045"
   font-family="Arial" font-size="18.75" fill="black" >
   0 days, 0 hours, 0 minutes, and 0.7349 seconds
  </text>
  <rect x="0" y="70" width="1000" height="1000" stroke-width="2" stroke="rgb(0,0,0)" fill="none"/>
</svg>
