<?xml version="1.0" encoding="UTF-8" standalone="no"?>
<!-- Created with PhysiCell (http://PhysiCell.MathCancer.org/) -->
<svg 
 xmlns:dc="http://purl.org/dc/elements/1.1/" 
 xmlns:cc="http://creativecommons.org/ns#" 
 xmlns:rdf="http://www.w3.org/1999/02/22-rdf-syntax-ns#" 
 xmlns:svg="http://www.w3.org/2000/svg" 
 xmlns="http://www.w3.org/2000/svg" 
 version="1.1" 
 width="1000" 
 height="1070" 
 id="svg2">
  <rect x="0" y="0" width="1000" height="1070" stroke-width="2" stroke="white" fill="white"/>
  <text x="12.5" y="30"
   font-family="Arial" font-size="25" fill="black" >
   Current time: 0 days, 7 hours, and 30.00 minutes, z = 0.00 &#956;m
  </text>
  <text x="12.5" y="57.5"
   font-family="Arial" font-size="23.75" fill="black" >
   10 agents
  </text>
 <g id="tissue" 
    transform="translate(0,1070) scale(1,-1)">
  <g id="ECM">
  </g>
  <g id="cells">
   <g id="cell0" type="ellipsey" dead="false" >
  <ellipse cx="151.794" cy="991.365" rx="50" ry="21.7945" stroke-width="0.5" stroke="black" fill="grey" transform="rotate(-90,151.794,991.365)"/>
   </g>
   <g id="cell1" type="ellipsey" dead="false" >
  <ellipse cx="82.1781" cy="600.033" rx="50" ry="21.7945" stroke-width="0.5" stroke="black" fill="grey" transform="rotate(25.3492,82.1781,600.033)"/>
   </g>
   <g id="cell2" type="ellipsey" dead="false" >
  <ellipse cx="527.481" cy="52.9455" rx="50" ry="21.7945" stroke-width="0.5" stroke="black" fill="grey" transform="rotate(-86.1112,527.481,52.9455)"/>
   </g>
   <g id="cell3" type="ellipsey" dead="false" >
  <ellipse cx="644.403" cy="417.282" rx="50" ry="21.7945" stroke-width="0.5" stroke="black" fill="grey" transform="rotate(-31.7375,644.403,417.282)"/>
   </g>
   <g id="cell4" type="ellipsey" dead="false" >
  <ellipse cx="809.399" cy="864.769" rx="50" ry="21.7945" stroke-width="0.5" stroke="black" fill="grey" transform="rotate(49.2153,809.399,864.769)"/>
   </g>
   <g id="cell5" type="ellipsey" dead="false" >
  <ellipse cx="431.393" cy="631.968" rx="50" ry="21.7945" stroke-width="0.5" stroke="black" fill="grey" transform="rotate(-12.1268,431.393,631.968)"/>
   </g>
   <g id="cell6" type="ellipsey" dead="false" >
  <ellipse cx="926.754" cy="345.303" rx="50" ry="21.7945" stroke-width="0.5" stroke="black" fill="grey" transform="rotate(-8.23914,926.754,345.303)"/>
   </g>
   <g id="cell7" type="ellipsey" dead="false" >
  <ellipse cx="262.404" cy="433.932" rx="50" ry="21.7945" stroke-width="0.5" stroke="black" fill="grey" transform="rotate(86.7267,262.404,433.932)"/>
   </g>
   <g id="cell8" type="ellipsey" dead="false" >
  <ellipse cx="795.737" cy="695.447" rx="50" ry="21.7945" stroke-width="0.5" stroke="black" fill="grey" transform="rotate(14.1613,795.737,695.447)"/>
   </g>
   <g id="cell9" type="secretor_cell" dead="false" >
  <ellipse cx="178.333" cy="700" rx="25" ry="25" stroke-width="0.5" stroke="black" fill="red" transform="rotate(-9.98696,178.333,700)"/>
   </g>
  </g>
 </g>
  <rect x="775" y="1035" width="200" height="10" stroke-width="2" stroke="rgb(255,255,255)" fill="rgb(0,0,0)"/>
  <text x="781.25" y="1028.75"
   font-family="Arial" font-size="25" fill="black" >
   200 &#956;m
  </text>
  <text x="25" y="1045"
   font-family="Arial" font-size="18.75" fill="black" >
   0 days, 0 hours, 0 minutes, and 8.0574 seconds
  </text>
  <rect x="0" y="70" width="1000" height="1000" stroke-width="2" stroke="rgb(0,0,0)" fill="none"/>
</svg>
