<?xml version="1.0" encoding="UTF-8" standalone="no"?>
<!-- Created with PhysiCell (http://PhysiCell.MathCancer.org/) -->
<svg 
 xmlns:dc="http://purl.org/dc/elements/1.1/" 
 xmlns:cc="http://creativecommons.org/ns#" 
 xmlns:rdf="http://www.w3.org/1999/02/22-rdf-syntax-ns#" 
 xmlns:svg="http://www.w3.org/2000/svg" 
 xmlns="http://www.w3.org/2000/svg" 
 version="1.1" 
 width="1000" 
 height="1070" 
 id="svg2">
  <rect x="0" y="0" width="1000" height="1070" stroke-width="2" stroke="white" fill="white"/>
  <text x="12.5" y="30"
   font-family="Arial" font-size="25" fill="black" >
   Current time: 0 days, 3 hours, and 20.00 minutes, z = 0.00 &#956;m
  </text>
  <text x="12.5" y="57.5"
   font-family="Arial" font-size="23.75" fill="black" >
   10 agents
  </text>
 <g id="tissue" 
    transform="translate(0,1070) scale(1,-1)">
  <g id="ECM">
  </g>
  <g id="cells">
   <g id="cell0" type="ellipsey" dead="false" >
  <ellipse cx="141.328" cy="992.188" rx="50" ry="21.7945" stroke-width="0.5" stroke="black" fill="grey" transform="rotate(-90,141.328,992.188)"/>
   </g>
   <g id="cell1" type="ellipsey" dead="false" >
  <ellipse cx="56.7239" cy="613.138" rx="50" ry="21.7945" stroke-width="0.5" stroke="black" fill="grey" transform="rotate(14.7037,56.7239,613.138)"/>
   </g>
   <g id="cell2" type="ellipsey" dead="false" >
  <ellipse cx="525.468" cy="51.1636" rx="50" ry="21.7945" stroke-width="0.5" stroke="black" fill="grey" transform="rotate(-85.9512,525.468,51.1636)"/>
   </g>
   <g id="cell3" type="ellipsey" dead="false" >
  <ellipse cx="625.492" cy="421.779" rx="50" ry="21.7945" stroke-width="0.5" stroke="black" fill="grey" transform="rotate(-31.2942,625.492,421.779)"/>
   </g>
   <g id="cell4" type="ellipsey" dead="false" >
  <ellipse cx="814.45" cy="893.353" rx="50" ry="21.7945" stroke-width="0.5" stroke="black" fill="grey" transform="rotate(54.6243,814.45,893.353)"/>
   </g>
   <g id="cell5" type="ellipsey" dead="false" >
  <ellipse cx="423.183" cy="645.182" rx="50" ry="21.7945" stroke-width="0.5" stroke="black" fill="grey" transform="rotate(-6.62479,423.183,645.182)"/>
   </g>
   <g id="cell6" type="ellipsey" dead="false" >
  <ellipse cx="928.383" cy="329.18" rx="50" ry="21.7945" stroke-width="0.5" stroke="black" fill="grey" transform="rotate(-9.22207,928.383,329.18)"/>
   </g>
   <g id="cell7" type="ellipsey" dead="false" >
  <ellipse cx="254.903" cy="433.032" rx="50" ry="21.7945" stroke-width="0.5" stroke="black" fill="grey" transform="rotate(83.1876,254.903,433.032)"/>
   </g>
   <g id="cell8" type="ellipsey" dead="false" >
  <ellipse cx="789.393" cy="681.785" rx="50" ry="21.7945" stroke-width="0.5" stroke="black" fill="grey" transform="rotate(13.7338,789.393,681.785)"/>
   </g>
   <g id="cell9" type="secretor_cell" dead="false" >
  <ellipse cx="178.333" cy="700" rx="25" ry="25" stroke-width="0.5" stroke="black" fill="red" transform="rotate(-9.87434,178.333,700)"/>
   </g>
  </g>
 </g>
  <rect x="775" y="1035" width="200" height="10" stroke-width="2" stroke="rgb(255,255,255)" fill="rgb(0,0,0)"/>
  <text x="781.25" y="1028.75"
   font-family="Arial" font-size="25" fill="black" >
   200 &#956;m
  </text>
  <text x="25" y="1045"
   font-family="Arial" font-size="18.75" fill="black" >
   0 days, 0 hours, 0 minutes, and 3.6389 seconds
  </text>
  <rect x="0" y="70" width="1000" height="1000" stroke-width="2" stroke="rgb(0,0,0)" fill="none"/>
</svg>
