<?xml version="1.0" encoding="UTF-8" standalone="no"?>
<!-- Created with PhysiCell (http://PhysiCell.MathCancer.org/) -->
<svg 
 xmlns:dc="http://purl.org/dc/elements/1.1/" 
 xmlns:cc="http://creativecommons.org/ns#" 
 xmlns:rdf="http://www.w3.org/1999/02/22-rdf-syntax-ns#" 
 xmlns:svg="http://www.w3.org/2000/svg" 
 xmlns="http://www.w3.org/2000/svg" 
 version="1.1" 
 width="1000" 
 height="1070" 
 id="svg2">
  <rect x="0" y="0" width="1000" height="1070" stroke-width="2" stroke="white" fill="white"/>
  <text x="12.5" y="30"
   font-family="Arial" font-size="25" fill="black" >
   Current time: 0 days, 8 hours, and 0.00 minutes, z = 0.00 &#956;m
  </text>
  <text x="12.5" y="57.5"
   font-family="Arial" font-size="23.75" fill="black" >
   10 agents
  </text>
 <g id="tissue" 
    transform="translate(0,1070) scale(1,-1)">
  <g id="ECM">
  </g>
  <g id="cells">
   <g id="cell0" type="ellipsey" dead="false" >
  <ellipse cx="155.829" cy="986.938" rx="50" ry="21.7945" stroke-width="0.5" stroke="black" fill="grey" transform="rotate(-90,155.829,986.938)"/>
   </g>
   <g id="cell1" type="ellipsey" dead="false" >
  <ellipse cx="78.8929" cy="600.984" rx="50" ry="21.7945" stroke-width="0.5" stroke="black" fill="grey" transform="rotate(27.7126,78.8929,600.984)"/>
   </g>
   <g id="cell2" type="ellipsey" dead="false" >
  <ellipse cx="534.16" cy="51.9408" rx="50" ry="21.7945" stroke-width="0.5" stroke="black" fill="grey" transform="rotate(-86.1115,534.16,51.9408)"/>
   </g>
   <g id="cell3" type="ellipsey" dead="false" >
  <ellipse cx="638.319" cy="415.413" rx="50" ry="21.7945" stroke-width="0.5" stroke="black" fill="grey" transform="rotate(-33.7517,638.319,415.413)"/>
   </g>
   <g id="cell4" type="ellipsey" dead="false" >
  <ellipse cx="813.211" cy="855.013" rx="50" ry="21.7945" stroke-width="0.5" stroke="black" fill="grey" transform="rotate(44.5182,813.211,855.013)"/>
   </g>
   <g id="cell5" type="ellipsey" dead="false" >
  <ellipse cx="426.474" cy="635.924" rx="50" ry="21.7945" stroke-width="0.5" stroke="black" fill="grey" transform="rotate(-12.1262,426.474,635.924)"/>
   </g>
   <g id="cell6" type="ellipsey" dead="false" >
  <ellipse cx="931.761" cy="351.806" rx="50" ry="21.7945" stroke-width="0.5" stroke="black" fill="grey" transform="rotate(-8.23879,931.761,351.806)"/>
   </g>
   <g id="cell7" type="ellipsey" dead="false" >
  <ellipse cx="274.518" cy="424.8" rx="50" ry="21.7945" stroke-width="0.5" stroke="black" fill="grey" transform="rotate(88.3661,274.518,424.8)"/>
   </g>
   <g id="cell8" type="ellipsey" dead="false" >
  <ellipse cx="807.54" cy="686.838" rx="50" ry="21.7945" stroke-width="0.5" stroke="black" fill="grey" transform="rotate(13.4052,807.54,686.838)"/>
   </g>
   <g id="cell9" type="secretor_cell" dead="false" >
  <ellipse cx="178.333" cy="700" rx="25" ry="25" stroke-width="0.5" stroke="black" fill="red" transform="rotate(-9.98723,178.333,700)"/>
   </g>
  </g>
 </g>
  <rect x="775" y="1035" width="200" height="10" stroke-width="2" stroke="rgb(255,255,255)" fill="rgb(0,0,0)"/>
  <text x="781.25" y="1028.75"
   font-family="Arial" font-size="25" fill="black" >
   200 &#956;m
  </text>
  <text x="25" y="1045"
   font-family="Arial" font-size="18.75" fill="black" >
   0 days, 0 hours, 0 minutes, and 8.5762 seconds
  </text>
  <rect x="0" y="70" width="1000" height="1000" stroke-width="2" stroke="rgb(0,0,0)" fill="none"/>
</svg>
