<?xml version="1.0" encoding="UTF-8" standalone="no"?>
<!-- Created with PhysiCell (http://PhysiCell.MathCancer.org/) -->
<svg 
 xmlns:dc="http://purl.org/dc/elements/1.1/" 
 xmlns:cc="http://creativecommons.org/ns#" 
 xmlns:rdf="http://www.w3.org/1999/02/22-rdf-syntax-ns#" 
 xmlns:svg="http://www.w3.org/2000/svg" 
 xmlns="http://www.w3.org/2000/svg" 
 version="1.1" 
 width="1000" 
 height="1070" 
 id="svg2">
  <rect x="0" y="0" width="1000" height="1070" stroke-width="2" stroke="white" fill="white"/>
  <text x="12.5" y="30"
   font-family="Arial" font-size="25" fill="black" >
   Current time: 0 days, 7 hours, and 50.00 minutes, z = 0.00 &#956;m
  </text>
  <text x="12.5" y="57.5"
   font-family="Arial" font-size="23.75" fill="black" >
   10 agents
  </text>
 <g id="tissue" 
    transform="translate(0,1070) scale(1,-1)">
  <g id="ECM">
  </g>
  <g id="cells">
   <g id="cell0" type="ellipsey" dead="false" >
  <ellipse cx="152.137" cy="987.17" rx="50" ry="21.7945" stroke-width="0.5" stroke="black" fill="grey" transform="rotate(-90,152.137,987.17)"/>
   </g>
   <g id="cell1" type="ellipsey" dead="false" >
  <ellipse cx="81.8083" cy="601.37" rx="50" ry="21.7945" stroke-width="0.5" stroke="black" fill="grey" transform="rotate(25.8441,81.8083,601.37)"/>
   </g>
   <g id="cell2" type="ellipsey" dead="false" >
  <ellipse cx="526.029" cy="50.5298" rx="50" ry="21.7945" stroke-width="0.5" stroke="black" fill="grey" transform="rotate(-86.1114,526.029,50.5298)"/>
   </g>
   <g id="cell3" type="ellipsey" dead="false" >
  <ellipse cx="639.581" cy="414.82" rx="50" ry="21.7945" stroke-width="0.5" stroke="black" fill="grey" transform="rotate(-32.2279,639.581,414.82)"/>
   </g>
   <g id="cell4" type="ellipsey" dead="false" >
  <ellipse cx="811.166" cy="859.032" rx="50" ry="21.7945" stroke-width="0.5" stroke="black" fill="grey" transform="rotate(47.5434,811.166,859.032)"/>
   </g>
   <g id="cell5" type="ellipsey" dead="false" >
  <ellipse cx="422.588" cy="633.798" rx="50" ry="21.7945" stroke-width="0.5" stroke="black" fill="grey" transform="rotate(-12.1264,422.588,633.798)"/>
   </g>
   <g id="cell6" type="ellipsey" dead="false" >
  <ellipse cx="927.854" cy="353.933" rx="50" ry="21.7945" stroke-width="0.5" stroke="black" fill="grey" transform="rotate(-8.23888,927.854,353.933)"/>
   </g>
   <g id="cell7" type="ellipsey" dead="false" >
  <ellipse cx="268.22" cy="426.972" rx="50" ry="21.7945" stroke-width="0.5" stroke="black" fill="grey" transform="rotate(88.3248,268.22,426.972)"/>
   </g>
   <g id="cell8" type="ellipsey" dead="false" >
  <ellipse cx="802.767" cy="689.029" rx="50" ry="21.7945" stroke-width="0.5" stroke="black" fill="grey" transform="rotate(13.4905,802.767,689.029)"/>
   </g>
   <g id="cell9" type="secretor_cell" dead="false" >
  <ellipse cx="178.333" cy="700" rx="25" ry="25" stroke-width="0.5" stroke="black" fill="red" transform="rotate(-9.98716,178.333,700)"/>
   </g>
  </g>
 </g>
  <rect x="775" y="1035" width="200" height="10" stroke-width="2" stroke="rgb(255,255,255)" fill="rgb(0,0,0)"/>
  <text x="781.25" y="1028.75"
   font-family="Arial" font-size="25" fill="black" >
   200 &#956;m
  </text>
  <text x="25" y="1045"
   font-family="Arial" font-size="18.75" fill="black" >
   0 days, 0 hours, 0 minutes, and 8.4056 seconds
  </text>
  <rect x="0" y="70" width="1000" height="1000" stroke-width="2" stroke="rgb(0,0,0)" fill="none"/>
</svg>
