<?xml version="1.0" encoding="UTF-8" standalone="no"?>
<!-- Created with PhysiCell (http://PhysiCell.MathCancer.org/) -->
<svg 
 xmlns:dc="http://purl.org/dc/elements/1.1/" 
 xmlns:cc="http://creativecommons.org/ns#" 
 xmlns:rdf="http://www.w3.org/1999/02/22-rdf-syntax-ns#" 
 xmlns:svg="http://www.w3.org/2000/svg" 
 xmlns="http://www.w3.org/2000/svg" 
 version="1.1" 
 width="1000" 
 height="1070" 
 id="svg2">
  <rect x="0" y="0" width="1000" height="1070" stroke-width="2" stroke="white" fill="white"/>
  <text x="12.5" y="30"
   font-family="Arial" font-size="25" fill="black" >
   Current time: 0 days, 6 hours, and 50.00 minutes, z = 0.00 &#956;m
  </text>
  <text x="12.5" y="57.5"
   font-family="Arial" font-size="23.75" fill="black" >
   10 agents
  </text>
 <g id="tissue" 
    transform="translate(0,1070) scale(1,-1)">
  <g id="ECM">
  </g>
  <g id="cells">
   <g id="cell0" type="ellipsey" dead="false" >
  <ellipse cx="145.063" cy="991.065" rx="50" ry="21.7945" stroke-width="0.5" stroke="black" fill="grey" transform="rotate(-90,145.063,991.065)"/>
   </g>
   <g id="cell1" type="ellipsey" dead="false" >
  <ellipse cx="71.9636" cy="602.149" rx="50" ry="21.7945" stroke-width="0.5" stroke="black" fill="grey" transform="rotate(21.6387,71.9636,602.149)"/>
   </g>
   <g id="cell2" type="ellipsey" dead="false" >
  <ellipse cx="528.727" cy="53.3966" rx="50" ry="21.7945" stroke-width="0.5" stroke="black" fill="grey" transform="rotate(-86.1099,528.727,53.3966)"/>
   </g>
   <g id="cell3" type="ellipsey" dead="false" >
  <ellipse cx="645.567" cy="424.253" rx="50" ry="21.7945" stroke-width="0.5" stroke="black" fill="grey" transform="rotate(-30.0364,645.567,424.253)"/>
   </g>
   <g id="cell4" type="ellipsey" dead="false" >
  <ellipse cx="805.895" cy="870.157" rx="50" ry="21.7945" stroke-width="0.5" stroke="black" fill="grey" transform="rotate(49.2132,805.895,870.157)"/>
   </g>
   <g id="cell5" type="ellipsey" dead="false" >
  <ellipse cx="432.198" cy="631.842" rx="50" ry="21.7945" stroke-width="0.5" stroke="black" fill="grey" transform="rotate(-12.1282,432.198,631.842)"/>
   </g>
   <g id="cell6" type="ellipsey" dead="false" >
  <ellipse cx="924.029" cy="346.134" rx="50" ry="21.7945" stroke-width="0.5" stroke="black" fill="grey" transform="rotate(-8.24086,924.029,346.134)"/>
   </g>
   <g id="cell7" type="ellipsey" dead="false" >
  <ellipse cx="260.448" cy="445.348" rx="50" ry="21.7945" stroke-width="0.5" stroke="black" fill="grey" transform="rotate(89.7598,260.448,445.348)"/>
   </g>
   <g id="cell8" type="ellipsey" dead="false" >
  <ellipse cx="791.314" cy="693.66" rx="50" ry="21.7945" stroke-width="0.5" stroke="black" fill="grey" transform="rotate(14.1584,791.314,693.66)"/>
   </g>
   <g id="cell9" type="secretor_cell" dead="false" >
  <ellipse cx="178.333" cy="700" rx="25" ry="25" stroke-width="0.5" stroke="black" fill="red" transform="rotate(-9.98621,178.333,700)"/>
   </g>
  </g>
 </g>
  <rect x="775" y="1035" width="200" height="10" stroke-width="2" stroke="rgb(255,255,255)" fill="rgb(0,0,0)"/>
  <text x="781.25" y="1028.75"
   font-family="Arial" font-size="25" fill="black" >
   200 &#956;m
  </text>
  <text x="25" y="1045"
   font-family="Arial" font-size="18.75" fill="black" >
   0 days, 0 hours, 0 minutes, and 7.3682 seconds
  </text>
  <rect x="0" y="70" width="1000" height="1000" stroke-width="2" stroke="rgb(0,0,0)" fill="none"/>
</svg>
