<?xml version="1.0" encoding="UTF-8" standalone="no"?>
<!-- Created with PhysiCell (http://PhysiCell.MathCancer.org/) -->
<svg 
 xmlns:dc="http://purl.org/dc/elements/1.1/" 
 xmlns:cc="http://creativecommons.org/ns#" 
 xmlns:rdf="http://www.w3.org/1999/02/22-rdf-syntax-ns#" 
 xmlns:svg="http://www.w3.org/2000/svg" 
 xmlns="http://www.w3.org/2000/svg" 
 version="1.1" 
 width="1000" 
 height="1070" 
 id="svg2">
  <rect x="0" y="0" width="1000" height="1070" stroke-width="2" stroke="white" fill="white"/>
  <text x="12.5" y="30"
   font-family="Arial" font-size="25" fill="black" >
   Current time: 0 days, 5 hours, and 30.00 minutes, z = 0.00 &#956;m
  </text>
  <text x="12.5" y="57.5"
   font-family="Arial" font-size="23.75" fill="black" >
   10 agents
  </text>
 <g id="tissue" 
    transform="translate(0,1070) scale(1,-1)">
  <g id="ECM">
  </g>
  <g id="cells">
   <g id="cell0" type="ellipsey" dead="false" >
  <ellipse cx="141.743" cy="989.365" rx="50" ry="21.7945" stroke-width="0.5" stroke="black" fill="grey" transform="rotate(-89.999,141.743,989.365)"/>
   </g>
   <g id="cell1" type="ellipsey" dead="false" >
  <ellipse cx="69.3475" cy="611.051" rx="50" ry="21.7945" stroke-width="0.5" stroke="black" fill="grey" transform="rotate(21.6395,69.3475,611.051)"/>
   </g>
   <g id="cell2" type="ellipsey" dead="false" >
  <ellipse cx="522.588" cy="60.4769" rx="50" ry="21.7945" stroke-width="0.5" stroke="black" fill="grey" transform="rotate(-84.3648,522.588,60.4769)"/>
   </g>
   <g id="cell3" type="ellipsey" dead="false" >
  <ellipse cx="625.83" cy="421.796" rx="50" ry="21.7945" stroke-width="0.5" stroke="black" fill="grey" transform="rotate(-31.2684,625.83,421.796)"/>
   </g>
   <g id="cell4" type="ellipsey" dead="false" >
  <ellipse cx="812.575" cy="875.948" rx="50" ry="21.7945" stroke-width="0.5" stroke="black" fill="grey" transform="rotate(49.2405,812.575,875.948)"/>
   </g>
   <g id="cell5" type="ellipsey" dead="false" >
  <ellipse cx="441.704" cy="635.65" rx="50" ry="21.7945" stroke-width="0.5" stroke="black" fill="grey" transform="rotate(-10.5704,441.704,635.65)"/>
   </g>
   <g id="cell6" type="ellipsey" dead="false" >
  <ellipse cx="929.03" cy="334.794" rx="50" ry="21.7945" stroke-width="0.5" stroke="black" fill="grey" transform="rotate(-9.082,929.03,334.794)"/>
   </g>
   <g id="cell7" type="ellipsey" dead="false" >
  <ellipse cx="250.565" cy="442.011" rx="50" ry="21.7945" stroke-width="0.5" stroke="black" fill="grey" transform="rotate(85.2407,250.565,442.011)"/>
   </g>
   <g id="cell8" type="ellipsey" dead="false" >
  <ellipse cx="783.014" cy="689.05" rx="50" ry="21.7945" stroke-width="0.5" stroke="black" fill="grey" transform="rotate(14.1328,783.014,689.05)"/>
   </g>
   <g id="cell9" type="secretor_cell" dead="false" >
  <ellipse cx="178.333" cy="700" rx="25" ry="25" stroke-width="0.5" stroke="black" fill="red" transform="rotate(-9.98035,178.333,700)"/>
   </g>
  </g>
 </g>
  <rect x="775" y="1035" width="200" height="10" stroke-width="2" stroke="rgb(255,255,255)" fill="rgb(0,0,0)"/>
  <text x="781.25" y="1028.75"
   font-family="Arial" font-size="25" fill="black" >
   200 &#956;m
  </text>
  <text x="25" y="1045"
   font-family="Arial" font-size="18.75" fill="black" >
   0 days, 0 hours, 0 minutes, and 5.9858 seconds
  </text>
  <rect x="0" y="70" width="1000" height="1000" stroke-width="2" stroke="rgb(0,0,0)" fill="none"/>
</svg>
