<?xml version="1.0" encoding="UTF-8" standalone="no"?>
<!-- Created with PhysiCell (http://PhysiCell.MathCancer.org/) -->
<svg 
 xmlns:dc="http://purl.org/dc/elements/1.1/" 
 xmlns:cc="http://creativecommons.org/ns#" 
 xmlns:rdf="http://www.w3.org/1999/02/22-rdf-syntax-ns#" 
 xmlns:svg="http://www.w3.org/2000/svg" 
 xmlns="http://www.w3.org/2000/svg" 
 version="1.1" 
 width="1000" 
 height="1070" 
 id="svg2">
  <rect x="0" y="0" width="1000" height="1070" stroke-width="2" stroke="white" fill="white"/>
  <text x="12.5" y="30"
   font-family="Arial" font-size="25" fill="black" >
   Current time: 0 days, 6 hours, and 40.00 minutes, z = 0.00 &#956;m
  </text>
  <text x="12.5" y="57.5"
   font-family="Arial" font-size="23.75" fill="black" >
   10 agents
  </text>
 <g id="tissue" 
    transform="translate(0,1070) scale(1,-1)">
  <g id="ECM">
  </g>
  <g id="cells">
   <g id="cell0" type="ellipsey" dead="false" >
  <ellipse cx="142.924" cy="989.563" rx="50" ry="21.7945" stroke-width="0.5" stroke="black" fill="grey" transform="rotate(-90,142.924,989.563)"/>
   </g>
   <g id="cell1" type="ellipsey" dead="false" >
  <ellipse cx="74.0633" cy="603.58" rx="50" ry="21.7945" stroke-width="0.5" stroke="black" fill="grey" transform="rotate(21.6508,74.0633,603.58)"/>
   </g>
   <g id="cell2" type="ellipsey" dead="false" >
  <ellipse cx="525.588" cy="51.9935" rx="50" ry="21.7945" stroke-width="0.5" stroke="black" fill="grey" transform="rotate(-86.1086,525.588,51.9935)"/>
   </g>
   <g id="cell3" type="ellipsey" dead="false" >
  <ellipse cx="640.536" cy="419.798" rx="50" ry="21.7945" stroke-width="0.5" stroke="black" fill="grey" transform="rotate(-32.3035,640.536,419.798)"/>
   </g>
   <g id="cell4" type="ellipsey" dead="false" >
  <ellipse cx="808.042" cy="873.726" rx="50" ry="21.7945" stroke-width="0.5" stroke="black" fill="grey" transform="rotate(49.2123,808.042,873.726)"/>
   </g>
   <g id="cell5" type="ellipsey" dead="false" >
  <ellipse cx="429.351" cy="632.579" rx="50" ry="21.7945" stroke-width="0.5" stroke="black" fill="grey" transform="rotate(-12.1287,429.351,632.579)"/>
   </g>
   <g id="cell6" type="ellipsey" dead="false" >
  <ellipse cx="927.266" cy="347.163" rx="50" ry="21.7945" stroke-width="0.5" stroke="black" fill="grey" transform="rotate(-8.24476,927.266,347.163)"/>
   </g>
   <g id="cell7" type="ellipsey" dead="false" >
  <ellipse cx="260.157" cy="449.665" rx="50" ry="21.7945" stroke-width="0.5" stroke="black" fill="grey" transform="rotate(89.2077,260.157,449.665)"/>
   </g>
   <g id="cell8" type="ellipsey" dead="false" >
  <ellipse cx="798.59" cy="695.193" rx="50" ry="21.7945" stroke-width="0.5" stroke="black" fill="grey" transform="rotate(14.1572,798.59,695.193)"/>
   </g>
   <g id="cell9" type="secretor_cell" dead="false" >
  <ellipse cx="178.333" cy="700" rx="25" ry="25" stroke-width="0.5" stroke="black" fill="red" transform="rotate(-9.9859,178.333,700)"/>
   </g>
  </g>
 </g>
  <rect x="775" y="1035" width="200" height="10" stroke-width="2" stroke="rgb(255,255,255)" fill="rgb(0,0,0)"/>
  <text x="781.25" y="1028.75"
   font-family="Arial" font-size="25" fill="black" >
   200 &#956;m
  </text>
  <text x="25" y="1045"
   font-family="Arial" font-size="18.75" fill="black" >
   0 days, 0 hours, 0 minutes, and 7.1922 seconds
  </text>
  <rect x="0" y="70" width="1000" height="1000" stroke-width="2" stroke="rgb(0,0,0)" fill="none"/>
</svg>
