<?xml version="1.0" encoding="UTF-8" standalone="no"?>
<!-- Created with PhysiCell (http://PhysiCell.MathCancer.org/) -->
<svg 
 xmlns:dc="http://purl.org/dc/elements/1.1/" 
 xmlns:cc="http://creativecommons.org/ns#" 
 xmlns:rdf="http://www.w3.org/1999/02/22-rdf-syntax-ns#" 
 xmlns:svg="http://www.w3.org/2000/svg" 
 xmlns="http://www.w3.org/2000/svg" 
 version="1.1" 
 width="1000" 
 height="1070" 
 id="svg2">
  <rect x="0" y="0" width="1000" height="1070" stroke-width="2" stroke="white" fill="white"/>
  <text x="12.5" y="30"
   font-family="Arial" font-size="25" fill="black" >
   Current time: 0 days, 4 hours, and 50.00 minutes, z = 0.00 &#956;m
  </text>
  <text x="12.5" y="57.5"
   font-family="Arial" font-size="23.75" fill="black" >
   10 agents
  </text>
 <g id="tissue" 
    transform="translate(0,1070) scale(1,-1)">
  <g id="ECM">
  </g>
  <g id="cells">
   <g id="cell0" type="ellipsey" dead="false" >
  <ellipse cx="142.663" cy="982.404" rx="50" ry="21.7945" stroke-width="0.5" stroke="black" fill="grey" transform="rotate(-88.9468,142.663,982.404)"/>
   </g>
   <g id="cell1" type="ellipsey" dead="false" >
  <ellipse cx="64.6227" cy="607.279" rx="50" ry="21.7945" stroke-width="0.5" stroke="black" fill="grey" transform="rotate(21.6448,64.6227,607.279)"/>
   </g>
   <g id="cell2" type="ellipsey" dead="false" >
  <ellipse cx="519.47" cy="65.7549" rx="50" ry="21.7945" stroke-width="0.5" stroke="black" fill="grey" transform="rotate(-84.4679,519.47,65.7549)"/>
   </g>
   <g id="cell3" type="ellipsey" dead="false" >
  <ellipse cx="627.834" cy="416.293" rx="50" ry="21.7945" stroke-width="0.5" stroke="black" fill="grey" transform="rotate(-33.8794,627.834,416.293)"/>
   </g>
   <g id="cell4" type="ellipsey" dead="false" >
  <ellipse cx="810.195" cy="887.569" rx="50" ry="21.7945" stroke-width="0.5" stroke="black" fill="grey" transform="rotate(54.9609,810.195,887.569)"/>
   </g>
   <g id="cell5" type="ellipsey" dead="false" >
  <ellipse cx="427.903" cy="630.676" rx="50" ry="21.7945" stroke-width="0.5" stroke="black" fill="grey" transform="rotate(-12.1593,427.903,630.676)"/>
   </g>
   <g id="cell6" type="ellipsey" dead="false" >
  <ellipse cx="936.55" cy="333.169" rx="50" ry="21.7945" stroke-width="0.5" stroke="black" fill="grey" transform="rotate(-9.08181,936.55,333.169)"/>
   </g>
   <g id="cell7" type="ellipsey" dead="false" >
  <ellipse cx="260.916" cy="444.358" rx="50" ry="21.7945" stroke-width="0.5" stroke="black" fill="grey" transform="rotate(88.0387,260.916,444.358)"/>
   </g>
   <g id="cell8" type="ellipsey" dead="false" >
  <ellipse cx="791.154" cy="678.745" rx="50" ry="21.7945" stroke-width="0.5" stroke="black" fill="grey" transform="rotate(11.4798,791.154,678.745)"/>
   </g>
   <g id="cell9" type="secretor_cell" dead="false" >
  <ellipse cx="178.333" cy="700" rx="25" ry="25" stroke-width="0.5" stroke="black" fill="red" transform="rotate(-9.97079,178.333,700)"/>
   </g>
  </g>
 </g>
  <rect x="775" y="1035" width="200" height="10" stroke-width="2" stroke="rgb(255,255,255)" fill="rgb(0,0,0)"/>
  <text x="781.25" y="1028.75"
   font-family="Arial" font-size="25" fill="black" >
   200 &#956;m
  </text>
  <text x="25" y="1045"
   font-family="Arial" font-size="18.75" fill="black" >
   0 days, 0 hours, 0 minutes, and 5.2696 seconds
  </text>
  <rect x="0" y="70" width="1000" height="1000" stroke-width="2" stroke="rgb(0,0,0)" fill="none"/>
</svg>
