<?xml version="1.0" encoding="UTF-8" standalone="no"?>
<!-- Created with PhysiCell (http://PhysiCell.MathCancer.org/) -->
<svg 
 xmlns:dc="http://purl.org/dc/elements/1.1/" 
 xmlns:cc="http://creativecommons.org/ns#" 
 xmlns:rdf="http://www.w3.org/1999/02/22-rdf-syntax-ns#" 
 xmlns:svg="http://www.w3.org/2000/svg" 
 xmlns="http://www.w3.org/2000/svg" 
 version="1.1" 
 width="1000" 
 height="1070" 
 id="svg2">
  <rect x="0" y="0" width="1000" height="1070" stroke-width="2" stroke="white" fill="white"/>
  <text x="12.5" y="30"
   font-family="Arial" font-size="25" fill="black" >
   Current time: 0 days, 0 hours, and 10.00 minutes, z = 0.00 &#956;m
  </text>
  <text x="12.5" y="57.5"
   font-family="Arial" font-size="23.75" fill="black" >
   10 agents
  </text>
 <g id="tissue" 
    transform="translate(0,1070) scale(1,-1)">
  <g id="ECM">
  </g>
  <g id="cells">
   <g id="cell0" type="ellipsey" dead="false" >
  <ellipse cx="158.949" cy="978.6" rx="50" ry="21.7945" stroke-width="0.5" stroke="black" fill="grey" transform="rotate(80.54,158.949,978.6)"/>
   </g>
   <g id="cell1" type="ellipsey" dead="false" >
  <ellipse cx="44.1786" cy="595.362" rx="50" ry="21.7945" stroke-width="0.5" stroke="black" fill="grey" transform="rotate(34.2978,44.1786,595.362)"/>
   </g>
   <g id="cell2" type="ellipsey" dead="false" >
  <ellipse cx="537.224" cy="60.806" rx="50" ry="21.7945" stroke-width="0.5" stroke="black" fill="grey" transform="rotate(-85.3057,537.224,60.806)"/>
   </g>
   <g id="cell3" type="ellipsey" dead="false" >
  <ellipse cx="615.157" cy="421.287" rx="50" ry="21.7945" stroke-width="0.5" stroke="black" fill="grey" transform="rotate(-11.9647,615.157,421.287)"/>
   </g>
   <g id="cell4" type="ellipsey" dead="false" >
  <ellipse cx="833.096" cy="899.012" rx="50" ry="21.7945" stroke-width="0.5" stroke="black" fill="grey" transform="rotate(25.4157,833.096,899.012)"/>
   </g>
   <g id="cell5" type="ellipsey" dead="false" >
  <ellipse cx="422.307" cy="647.326" rx="50" ry="21.7945" stroke-width="0.5" stroke="black" fill="grey" transform="rotate(0.312464,422.307,647.326)"/>
   </g>
   <g id="cell6" type="ellipsey" dead="false" >
  <ellipse cx="921.243" cy="340.551" rx="50" ry="21.7945" stroke-width="0.5" stroke="black" fill="grey" transform="rotate(1.42311,921.243,340.551)"/>
   </g>
   <g id="cell7" type="ellipsey" dead="false" >
  <ellipse cx="249.086" cy="441.39" rx="50" ry="21.7945" stroke-width="0.5" stroke="black" fill="grey" transform="rotate(-87.3847,249.086,441.39)"/>
   </g>
   <g id="cell8" type="ellipsey" dead="false" >
  <ellipse cx="778.672" cy="689.358" rx="50" ry="21.7945" stroke-width="0.5" stroke="black" fill="grey" transform="rotate(10.714,778.672,689.358)"/>
   </g>
   <g id="cell9" type="secretor_cell" dead="false" >
  <ellipse cx="178.333" cy="700" rx="25" ry="25" stroke-width="0.5" stroke="black" fill="red" transform="rotate(-0.0496358,178.333,700)"/>
   </g>
  </g>
 </g>
  <rect x="775" y="1035" width="200" height="10" stroke-width="2" stroke="rgb(255,255,255)" fill="rgb(0,0,0)"/>
  <text x="781.25" y="1028.75"
   font-family="Arial" font-size="25" fill="black" >
   200 &#956;m
  </text>
  <text x="25" y="1045"
   font-family="Arial" font-size="18.75" fill="black" >
   0 days, 0 hours, 0 minutes, and 0.1875 seconds
  </text>
  <rect x="0" y="70" width="1000" height="1000" stroke-width="2" stroke="rgb(0,0,0)" fill="none"/>
</svg>
